<svg width="20" height="22" viewBox="0 0 20 22" fill="none" xmlns="http://www.w3.org/2000/svg">
<path d="M9 7.66744H11V5.47674H9M10 19.7163C5.59 19.7163 2 15.784 2 10.9535C2 6.123 5.59 2.1907 10 2.1907C14.41 2.1907 18 6.123 18 10.9535C18 15.784 14.41 19.7163 10 19.7163ZM10 0C8.68678 0 7.38642 0.28332 6.17317 0.833785C4.95991 1.38425 3.85752 2.19108 2.92893 3.2082C1.05357 5.26238 0 8.04844 0 10.9535C0 13.8585 1.05357 16.6446 2.92893 18.6988C3.85752 19.7159 4.95991 20.5227 6.17317 21.0732C7.38642 21.6237 8.68678 21.907 10 21.907C12.6522 21.907 15.1957 20.753 17.0711 18.6988C18.9464 16.6446 20 13.8585 20 10.9535C20 9.51506 19.7413 8.09071 19.2388 6.76177C18.7362 5.43283 17.9997 4.22533 17.0711 3.2082C16.1425 2.19108 15.0401 1.38425 13.8268 0.833785C12.6136 0.28332 11.3132 0 10 0ZM9 16.4302H11V9.85814H9V16.4302Z" fill="black"/>
</svg>
