<svg width="29" height="23" viewBox="0 0 29 23" fill="none" xmlns="http://www.w3.org/2000/svg">
<path d="M23.7077 1.51839L21.8943 2.93505L14.1735 8.67256L6.45268 2.87839L4.63935 1.46172C4.21216 1.10833 3.69068 0.888027 3.13951 0.828117C2.58834 0.768206 2.0317 0.871316 1.53856 1.12467C1.04542 1.37803 0.637445 1.7705 0.365181 2.25346C0.0929165 2.73642 -0.0316725 3.28865 0.00684872 3.84172V20.2609C0.00684872 20.7719 0.209836 21.2619 0.571156 21.6233C0.932476 21.9846 1.42253 22.1876 1.93352 22.1876H6.45268V11.2509L14.1735 17.0451L21.8943 11.2509V22.1876H26.4135C26.9245 22.1876 27.4146 21.9846 27.7759 21.6233C28.1372 21.2619 28.3402 20.7719 28.3402 20.2609V3.84172C28.3668 3.29342 28.2335 2.74919 27.9566 2.2752C27.6797 1.80121 27.2711 1.41787 26.7804 1.17177C26.2897 0.925675 25.7381 0.827421 25.1926 0.888955C24.6471 0.950489 24.1312 1.16916 23.7077 1.51839Z" fill="#818181"/>
</svg>
