<svg width="29" height="30" viewBox="0 0 29 30" fill="none" xmlns="http://www.w3.org/2000/svg">
<path d="M22.155 11.493L26.5972 16.0008C27.318 16.7225 27.8911 17.5818 28.2833 18.5292C28.6755 19.4766 28.8792 20.4934 28.8826 21.521C28.8859 22.5486 28.689 23.5668 28.303 24.5168C27.9171 25.4668 27.3498 26.33 26.6337 27.0567C25.9177 27.7833 25.067 28.359 24.1308 28.7507C23.1946 29.1423 22.1913 29.3422 21.1787 29.3387C20.166 29.3353 19.1641 29.1286 18.2305 28.7306C17.2969 28.3326 16.4501 27.7511 15.7388 27.0196L14.259 25.518C14.059 25.322 13.8993 25.0876 13.7895 24.8284C13.6796 24.5692 13.6217 24.2904 13.6191 24.0082C13.6166 23.7261 13.6695 23.4462 13.7746 23.185C13.8798 22.9238 14.0352 22.6865 14.2317 22.4869C14.4282 22.2873 14.6619 22.1294 14.9192 22.0224C15.1765 21.9154 15.4523 21.8615 15.7303 21.8638C16.0084 21.8662 16.2832 21.9247 16.5387 22.0359C16.7942 22.1471 17.0254 22.3089 17.2186 22.5118L18.7012 24.0149C19.3568 24.6742 20.2431 25.0431 21.1661 25.0409C22.089 25.0387 22.9736 24.6656 23.6261 24.0032C24.2787 23.3408 24.6461 22.4431 24.648 21.5065C24.6499 20.5699 24.2861 19.6706 23.6362 19.0055L19.194 14.4977C18.7139 14.0103 18.104 13.6756 17.4392 13.5346C16.7744 13.3937 16.0835 13.4527 15.4513 13.7044C15.2251 13.795 15.0157 13.8885 14.8175 13.982L14.1697 14.2895C13.3042 14.6861 12.6382 14.8561 11.7909 13.9976C10.5735 12.7623 10.889 11.6219 12.373 10.5835C13.8515 9.55175 15.6392 9.07784 17.426 9.24398C19.2128 9.41011 20.8859 10.2058 22.155 11.493ZM13.7649 2.97878L15.2446 4.48045C15.6263 4.88105 15.8376 5.41773 15.8331 5.9749C15.8286 6.53207 15.6086 7.06516 15.2205 7.45934C14.8325 7.85352 14.3073 8.07725 13.7583 8.08236C13.2092 8.08746 12.6802 7.87352 12.2851 7.48662L10.8039 5.98495C10.482 5.6466 10.097 5.37667 9.67121 5.19094C9.24546 5.0052 8.78752 4.90737 8.32411 4.90315C7.8607 4.89893 7.4011 4.98841 6.97213 5.16636C6.54316 5.34432 6.15342 5.60719 5.82563 5.93963C5.49784 6.27207 5.23858 6.66743 5.06298 7.10264C4.88737 7.53784 4.79894 8.00418 4.80283 8.47444C4.80673 8.9447 4.90288 9.40947 5.08567 9.84162C5.26846 10.2738 5.53423 10.6646 5.86748 10.9915L10.3097 15.4993C10.7898 15.9867 11.3997 16.3214 12.0645 16.4623C12.7293 16.6033 13.4202 16.5443 14.0524 16.2926C14.2786 16.202 14.488 16.1085 14.6862 16.015L15.334 15.7075C16.1995 15.3109 16.8668 15.1409 17.7128 15.9994C18.9302 17.2347 18.6147 18.3751 17.1307 19.4135C15.6522 20.4452 13.8645 20.9191 12.0777 20.753C10.2909 20.5869 8.61776 19.7912 7.34867 18.504L2.90648 13.9962C2.18566 13.2745 1.61264 12.4151 1.22042 11.4677C0.828198 10.5203 0.624529 9.50358 0.621137 8.47597C0.617744 7.44837 0.814695 6.43023 1.20065 5.48019C1.5866 4.53015 2.15394 3.66696 2.86999 2.94033C3.58603 2.2137 4.43665 1.63798 5.37286 1.24632C6.30907 0.854666 7.31237 0.654804 8.32501 0.658247C9.33765 0.661689 10.3396 0.868368 11.2732 1.26638C12.2068 1.6644 13.0536 2.2473 13.7649 2.97878Z" fill="#818181"/>
</svg>
