<svg width="17" height="20" viewBox="0 0 17 20" fill="none" xmlns="http://www.w3.org/2000/svg">
<path d="M1.615 19.0741C1.155 19.0741 0.771 18.9054 0.463 18.568C0.154333 18.2299 0 17.8089 0 17.3051V3.31746C0 2.8136 0.154333 2.39299 0.463 2.05562C0.771 1.71752 1.155 1.54847 1.615 1.54847H10.923V2.64382H1.615C1.46167 2.64382 1.32067 2.71392 1.192 2.85413C1.064 2.99506 1 3.14951 1 3.31746V17.3051C1 17.473 1.064 17.6275 1.192 17.7684C1.32067 17.9086 1.46167 17.9787 1.615 17.9787H14.385C14.5383 17.9787 14.6793 17.9086 14.808 17.7684C14.936 17.6275 15 17.473 15 17.3051V7.10956H16V17.3051C16 17.8089 15.846 18.2295 15.538 18.5669C15.2293 18.905 14.845 19.0741 14.385 19.0741H1.615ZM4.5 15.2403V14.145H11.5V15.2403H4.5ZM4.5 11.9543V10.8589H11.5V11.9543H4.5ZM4.5 8.66824V7.57289H11.5V8.66824H4.5ZM14 5.92987V3.73917H12V2.64382H14V0.453125H15V2.64382H17V3.73917H15V5.92987H14Z" fill="black"/>
</svg>