<svg width="30" height="30" viewBox="0 0 23 32" fill="none" xmlns="http://www.w3.org/2000/svg">
<path fill-rule="evenodd" clip-rule="evenodd" d="M11.5 30.0392L12.6043 28.752C13.8573 27.2674 14.9843 25.8589 15.987 24.5192L16.8147 23.3895C20.271 18.572 22 14.7484 22 11.9223C22 5.88995 17.2995 1 11.5 1C5.7005 1 1 5.88995 1 11.9223C1 14.7484 2.729 18.572 6.18525 23.3895L7.013 24.5192C8.44352 26.4154 9.94017 28.2554 11.5 30.0392Z" stroke="black" strokeWidth="2" stroke-linecap="round" stroke-linejoin="round"/>
<path d="M11.5 16.389C13.9162 16.389 15.875 14.3626 15.875 11.863C15.875 9.3633 13.9162 7.33691 11.5 7.33691C9.08375 7.33691 7.125 9.3633 7.125 11.863C7.125 14.3626 9.08375 16.389 11.5 16.389Z" stroke="black" strokeWidth="2" stroke-linecap="round" stroke-linejoin="round"/>
</svg>
