<svg width="13" height="13" viewBox="0 0 13 13" fill="none" xmlns="http://www.w3.org/2000/svg">
<path d="M3 0.5V2M10 0.5V2M0.5 11V3.5C0.5 3.10218 0.658035 2.72064 0.93934 2.43934C1.22064 2.15804 1.60218 2 2 2H11C11.3978 2 11.7794 2.15804 12.0607 2.43934C12.342 2.72064 12.5 3.10218 12.5 3.5V11M0.5 11C0.5 11.3978 0.658035 11.7794 0.93934 12.0607C1.22064 12.342 1.60218 12.5 2 12.5H11C11.3978 12.5 11.7794 12.342 12.0607 12.0607C12.342 11.7794 12.5 11.3978 12.5 11M0.5 11V6C0.5 5.60218 0.658035 5.22064 0.93934 4.93934C1.22064 4.65804 1.60218 4.5 2 4.5H11C11.3978 4.5 11.7794 4.65804 12.0607 4.93934C12.342 5.22064 12.5 5.60218 12.5 6V11" stroke="#E0E0E0" stroke-linecap="round" stroke-linejoin="round"/>
</svg>
