<svg width="87" height="104" viewBox="0 0 87 104" fill="none" xmlns="http://www.w3.org/2000/svg">
<g clip-path="url(#clip0_6116_9131)">
<path d="M86.4844 54.67C85.6324 56.9599 85.912 59.4409 85.2392 61.8082C81.368 75.3881 73.4117 85.2577 61.0992 91.3079C59.3428 92.1683 57.8398 91.8041 56.4678 90.4839C55.3799 89.4368 54.3968 88.2896 53.7982 86.8738C49.9402 77.7371 47.843 68.1224 47.2007 58.2072C46.9036 53.6275 48.9703 51.4059 53.357 50.4863C56.8917 50.1586 60.4264 50.1859 63.9654 50.4636C65.132 50.4954 66.2986 50.5273 67.4652 50.5546C69.2478 50.896 71.0348 50.8096 72.8262 50.6001C73.3767 50.3953 73.9666 50.2633 74.4647 49.9628C75.238 49.4939 75.9371 48.8748 75.8803 47.805C75.8191 46.635 74.9715 46.0067 74.0802 45.7063C71.3625 44.7821 68.6405 43.7579 65.8398 43.2434C63.8606 42.8792 62.1566 41.946 60.3259 41.295C47.3842 36.7107 36.6228 28.9534 28.5747 17.322C27.7227 16.0928 26.8751 14.85 26.1847 13.5207C25.1886 11.6041 26.4906 8.51758 28.6927 7.73001C32.0876 6.51452 35.5174 5.37186 39.1745 5.38097C42.0188 5.13058 44.8632 5.12603 47.7119 5.38097C62.1435 6.91513 72.9791 14.4175 80.5816 27.1097C84.0071 32.832 85.8902 39.1554 86.5237 45.8747C86.7815 48.8065 86.8252 51.7382 86.4975 54.67H86.4844Z" fill="#207BFF"/>
<path d="M30.4114 63.5663C30.5949 71.697 31.803 79.7593 33.9483 87.6259C34.1274 88.2769 34.1623 88.9871 34.1667 89.6699C34.1929 92.9568 32.6768 94.195 29.6839 93.1889C22.6232 90.8171 16.5325 86.7882 11.4599 81.1478C3.64332 72.4572 0.895194 63.2621 0.33336 49.739C-0.228474 36.2158 4.09772 27.0514 12.5959 18.2925C14.8941 15.9207 15.781 13.294 16.1 10.039C16.3534 7.44869 16.4583 4.88568 16.4364 2.2999C16.4277 1.29837 16.6854 0.328705 17.6729 0.173922C18.9094 -0.0218317 18.9662 1.15724 19.0842 2.04497C20.2245 10.7765 23.5364 18.7523 27.0361 26.6462C28.7882 30.6023 29.4785 34.7131 29.7756 39.047C30.1645 44.7421 30.0182 50.4281 30.0618 56.1414C30.0819 58.7645 30.0618 60.8514 30.4114 63.5663Z" fill="#207BFF"/>
<path d="M37.5423 75.0721C37.4638 73.7152 36.8607 72.632 38.1409 72.2313C39.6309 71.767 40.0109 73.3968 40.4916 74.4302C44.9352 83.9993 44.3993 86.6419 53.0418 92.4371C49.4649 95.8159 50.9601 91.2764 52.5549 92.2188C53.1273 92.5556 53.3604 92.3813 52.8734 93.0312C51.8683 94.6492 52.1766 94.34 51.5749 94.3313C49.7005 94.3039 53.3604 92.2188 51.9372 94.5506C50.7855 96.2 51.527 95.0625 50.8041 96.2C49.0083 95.1256 47.1372 94.5883 45.0356 94.3925C43.2711 93.8891 41.6014 94.8432 40.1508 93.4957C37.9836 91.6155 38.1453 88.9387 37.9618 86.403C37.87 85.1101 37.9372 83.4857 37.911 82.1882C37.8382 78.5848 37.6458 76.6717 37.4537 73.5413L37.5423 75.0721Z" fill="#207BFF"/>
<path d="M63.9655 50.4636C60.4308 50.4727 56.8917 50.4772 53.357 50.4863C56.8917 49.6805 60.4264 49.8126 63.9655 50.4636Z" fill="#879CBA"/>
<path d="M47.7032 5.38551C44.8588 5.38551 42.0144 5.38551 39.1657 5.38551C42.0101 4.72086 44.8588 4.69354 47.7032 5.38551Z" fill="#7184A6"/>
<path d="M86.4844 54.67C86.4932 51.7382 86.5019 48.8065 86.5107 45.8747C87.1398 48.8065 87.1923 51.7382 86.4844 54.67Z" fill="#A2CBEC"/>
<path d="M72.8219 50.6001C71.0305 51.2193 69.2435 51.1737 67.4608 50.5546C69.2478 50.5683 71.0348 50.5865 72.8219 50.6001Z" fill="#86B5E1"/>
<path d="M59.1287 24.7014C59.0806 29.2493 55.7993 32.5589 51.3646 32.5361C47.1395 32.5134 43.5961 28.7212 43.6529 24.2872C43.7053 20.1308 47.4891 16.4706 51.6704 16.5253C55.9785 16.5845 59.1811 20.0898 59.1331 24.7014H59.1287Z" fill="#FEFEFE"/>
<path d="M78.8333 20.3479C63.8317 -3.53608 34.5 3.47828 25.8333 8.17369C20.8333 16.8693 44.4145 34.308 48.8334 36.5218C53.9627 39.0915 69.6667 45.0436 74.3707 46.8217C78.7161 48.4643 67.8334 48.3478 60.3334 48.3478C52.8333 48.3478 48.3334 49.2175 46.3334 53.3914C44.3334 57.5653 44.5 58.087 53.3707 87.6913C57.6843 102.087 74.687 82.1361 79.3333 75.3043C83 69.913 95 46.0868 78.8333 20.3479Z" fill="#207BFF"/>
<path d="M61.1432 21.742C61.0951 26.2898 57.8138 29.5994 53.379 29.5767C49.154 29.5539 45.6106 25.7617 45.6674 21.3277C45.7198 17.1713 49.5035 13.5112 53.6849 13.5658C57.9929 13.625 61.1956 17.1304 61.1475 21.742H61.1432Z" fill="#FEFEFE"/>
</g>
<defs>
<clipPath id="clip0_6116_9131">
<rect width="87" height="104" fill="white"/>
</clipPath>
</defs>
</svg>
