<svg width="29" height="29" viewBox="0 0 29 29" fill="none" xmlns="http://www.w3.org/2000/svg">
<path fill-rule="evenodd" clip-rule="evenodd" d="M21.4502 28.3556C19.4102 28.2805 13.6288 27.4815 7.57396 21.4281C1.52055 15.3732 0.722963 9.59324 0.646463 7.55182C0.533129 4.44082 2.91596 1.41907 5.66855 0.238988C6.00001 0.0958583 6.363 0.0413642 6.72188 0.0808538C7.08076 0.120343 7.42321 0.25246 7.71563 0.464238C9.9823 2.11607 11.5463 4.61507 12.8893 6.57999C13.1848 7.01169 13.3111 7.53701 13.2443 8.05587C13.1774 8.57472 12.9219 9.05083 12.5266 9.39349L9.76271 11.4462C9.62918 11.5427 9.53519 11.6843 9.49819 11.8448C9.46119 12.0053 9.4837 12.1738 9.56155 12.3189C10.1877 13.4565 11.3012 15.1508 12.5762 16.4258C13.8526 17.7008 15.6263 18.888 16.8432 19.585C16.9958 19.6706 17.1754 19.6946 17.3451 19.6519C17.5148 19.6092 17.6617 19.5031 17.7555 19.3555L19.5547 16.6171C19.8855 16.1777 20.3734 15.8833 20.9164 15.7957C21.4593 15.708 22.0151 15.8338 22.4674 16.1467C24.4606 17.5266 26.7868 19.0637 28.4896 21.2439C28.7186 21.5384 28.8643 21.8891 28.9114 22.2591C28.9585 22.6292 28.9053 23.0052 28.7574 23.3477C27.5716 26.1144 24.5711 28.4703 21.4502 28.3556Z" fill="#818181"/>
</svg>
