<svg width="273" height="201" viewBox="0 0 273 201" fill="none" xmlns="http://www.w3.org/2000/svg">
<g clip-path="url(#clip0_6076_4459)">
<path d="M238.642 42.377H238.603L216.525 52.4777L186.317 66.2977C186.199 66.3509 186.072 66.3787 185.944 66.3794C185.816 66.3801 185.689 66.3537 185.57 66.3018L154.405 52.4488L131.784 42.3934L131.749 42.377H131.711C131.354 42.3774 131.011 42.5295 130.759 42.7999C130.507 43.0703 130.365 43.4369 130.364 43.8193V106.46C130.365 106.842 130.507 107.209 130.759 107.479C131.011 107.749 131.354 107.902 131.711 107.902H238.642C238.999 107.902 239.341 107.749 239.593 107.479C239.846 107.209 239.988 106.842 239.988 106.46V43.8193C239.988 43.4369 239.846 43.0703 239.593 42.7999C239.341 42.5295 238.999 42.3774 238.642 42.377Z" fill="white"/>
<path d="M238.738 42.7892C238.699 42.7892 238.661 42.7763 238.628 42.7523L185.44 3.06564C185.278 2.94543 185.086 2.88118 184.889 2.88154C184.692 2.8819 184.5 2.94685 184.338 3.06765L131.533 42.7519C131.491 42.783 131.439 42.7952 131.389 42.7856C131.339 42.7761 131.295 42.7457 131.265 42.7011C131.236 42.6564 131.225 42.6012 131.233 42.5475C131.242 42.4937 131.27 42.4459 131.312 42.4144L184.117 2.73021C184.343 2.56111 184.612 2.47021 184.888 2.46973C185.164 2.46924 185.433 2.55919 185.66 2.72749L238.848 42.414C238.882 42.4391 238.907 42.475 238.92 42.5166C238.934 42.5581 238.934 42.6031 238.922 42.6449C238.909 42.6868 238.885 42.7233 238.852 42.7493C238.819 42.7752 238.779 42.7892 238.738 42.7892Z" fill="#3F3D56"/>
<path d="M134.55 44.1957L184.94 4.18359L235.714 47.0426L187.537 77.6414L161.381 71.2541L134.55 44.1957Z" fill="#E6E6E6"/>
<path d="M163.589 96.542H138.695C138.387 96.5425 138.091 96.4116 137.872 96.1783C137.654 95.945 137.531 95.6282 137.53 95.2977C137.53 94.9672 137.652 94.6501 137.87 94.4161C138.087 94.182 138.383 94.0503 138.692 94.0498H163.589C163.898 94.0493 164.194 94.1801 164.412 94.4135C164.631 94.6468 164.754 94.9636 164.754 95.294C164.755 95.6245 164.632 95.9417 164.415 96.1757C164.197 96.4097 163.901 96.5415 163.593 96.542H163.589Z" fill="#207BFF"/>
<path d="M147.626 91.1845H138.695C138.386 91.1848 138.091 91.0539 137.872 90.8206C137.654 90.5873 137.531 90.2706 137.531 89.9403C137.53 89.61 137.652 89.293 137.87 89.059C138.088 88.8249 138.383 88.6931 138.691 88.6924H147.626C147.779 88.692 147.93 88.7239 148.072 88.7863C148.213 88.8486 148.341 88.9402 148.45 89.0557C148.558 89.1713 148.644 89.3086 148.703 89.4597C148.761 89.6108 148.792 89.7729 148.792 89.9366C148.792 90.1003 148.762 90.2625 148.704 90.4138C148.646 90.5651 148.56 90.7027 148.452 90.8186C148.344 90.9345 148.216 91.0264 148.075 91.0892C147.934 91.152 147.782 91.1844 147.63 91.1845H147.626Z" fill="#207BFF"/>
<path d="M185.649 66.4824C185.46 66.4826 185.273 66.4433 185.098 66.3666L154.02 52.5509V9.30565C154.02 8.92325 154.162 8.55664 154.415 8.28624C154.667 8.01584 155.009 7.86373 155.366 7.86328H214.986C215.343 7.86373 215.685 8.01584 215.938 8.28624C216.19 8.55664 216.332 8.92325 216.333 9.30565V52.5811L216.274 52.6079L186.218 66.3599C186.038 66.4409 185.845 66.4826 185.649 66.4824Z" fill="white"/>
<path d="M185.649 66.5848C185.448 66.5851 185.248 66.5432 185.061 66.4615L153.924 52.6193V9.30516C153.924 8.89544 154.076 8.50263 154.347 8.21291C154.617 7.9232 154.984 7.76023 155.366 7.75977H214.986C215.369 7.76023 215.735 7.9232 216.006 8.21291C216.276 8.50263 216.428 8.89544 216.429 9.30516V52.6487L186.256 66.4541C186.064 66.5406 185.858 66.585 185.649 66.5848ZM154.308 52.344L185.208 66.0805C185.496 66.2058 185.819 66.2037 186.105 66.0748L216.044 52.3766V9.30516C216.044 9.00471 215.932 8.71666 215.734 8.50421C215.536 8.29176 215.267 8.17225 214.986 8.17189H155.366C155.086 8.17225 154.817 8.29176 154.619 8.50421C154.42 8.71666 154.309 9.00471 154.308 9.30516L154.308 52.344Z" fill="#3F3D56"/>
<path d="M238.353 42.377H238.315L216.236 52.4777L186.028 66.2977C185.91 66.3509 185.783 66.3787 185.655 66.3794C185.527 66.3801 185.4 66.3537 185.282 66.3018L154.116 52.4488L131.495 42.3934L131.46 42.377H131.422C131.065 42.3774 130.723 42.5295 130.47 42.7999C130.218 43.0703 130.076 43.4369 130.076 43.8193V106.46C130.076 106.842 130.218 107.209 130.47 107.479C130.723 107.749 131.065 107.902 131.422 107.902H238.353C238.71 107.902 239.053 107.749 239.305 107.479C239.557 107.209 239.699 106.842 239.7 106.46V43.8193C239.699 43.4369 239.557 43.0703 239.305 42.7999C239.053 42.5295 238.71 42.3774 238.353 42.377ZM239.315 106.46C239.315 106.733 239.214 106.995 239.033 107.188C238.853 107.381 238.608 107.49 238.353 107.49H131.422C131.167 107.49 130.922 107.381 130.742 107.188C130.562 106.995 130.46 106.733 130.46 106.46V43.8193C130.461 43.5529 130.557 43.2969 130.73 43.1049C130.902 42.9129 131.137 42.7997 131.385 42.7891L154.116 52.8939L185.134 66.683C185.47 66.8294 185.846 66.8272 186.18 66.6768L216.236 52.9248L238.392 42.7891C238.64 42.8005 238.874 42.914 239.046 43.1059C239.218 43.2978 239.314 43.5533 239.315 43.8193V106.46Z" fill="#3F3D56"/>
<path d="M180.811 24.0283H159.656C159.248 24.0277 158.857 23.8537 158.569 23.5447C158.281 23.2356 158.119 22.8167 158.119 22.3799C158.119 21.9431 158.281 21.5242 158.569 21.2151C158.857 20.906 159.248 20.7321 159.656 20.7314H180.811C181.219 20.7321 181.61 20.906 181.898 21.2151C182.186 21.5242 182.347 21.9431 182.347 22.3799C182.347 22.8167 182.186 23.2356 181.898 23.5447C181.61 23.8537 181.219 24.0277 180.811 24.0283Z" fill="#207BFF"/>
<path d="M169.849 17.0224H159.656C159.248 17.0224 158.856 16.8488 158.568 16.5396C158.279 16.2305 158.117 15.8112 158.117 15.374C158.117 14.9368 158.279 14.5175 158.568 14.2084C158.856 13.8993 159.248 13.7256 159.656 13.7256H169.849C170.257 13.7256 170.648 13.8993 170.937 14.2084C171.225 14.5175 171.387 14.9368 171.387 15.374C171.387 15.8112 171.225 16.2305 170.937 16.5396C170.648 16.8488 170.257 17.0224 169.849 17.0224Z" fill="#207BFF"/>
<path d="M200.999 40.5127H168.689C168.281 40.5121 167.89 40.3381 167.602 40.029C167.314 39.72 167.152 39.301 167.152 38.8643C167.152 38.4275 167.314 38.0085 167.602 37.6995C167.89 37.3904 168.281 37.2164 168.689 37.2158H200.999C201.407 37.2164 201.797 37.3904 202.085 37.6995C202.374 38.0085 202.535 38.4275 202.535 38.8643C202.535 39.301 202.374 39.72 202.085 40.029C201.797 40.3381 201.407 40.5121 200.999 40.5127Z" fill="#CCCCCC"/>
<path d="M200.999 48.1367H168.689C168.281 48.1367 167.89 47.963 167.601 47.6539C167.312 47.3448 167.15 46.9255 167.15 46.4883C167.15 46.0511 167.312 45.6318 167.601 45.3227C167.89 45.0135 168.281 44.8398 168.689 44.8398H200.999C201.407 44.8398 201.799 45.0135 202.087 45.3227C202.376 45.6318 202.538 46.0511 202.538 46.4883C202.538 46.9255 202.376 47.3448 202.087 47.6539C201.799 47.963 201.407 48.1367 200.999 48.1367Z" fill="#CCCCCC"/>
<path d="M237.757 58.6486C245.837 58.6486 252.387 51.631 252.387 42.9742C252.387 34.3175 245.837 27.2998 237.757 27.2998C229.677 27.2998 223.127 34.3175 223.127 42.9742C223.127 51.631 229.677 58.6486 237.757 58.6486Z" fill="#207BFF"/>
<path d="M236.363 49.5909L231.984 43.5586L234.531 41.4366L236.604 44.2928L243.608 36.3711L245.95 38.7485L236.363 49.5909Z" fill="white"/>
<path d="M74.0477 135.614C73.7925 135.211 73.6228 134.754 73.5504 134.274C73.4781 133.793 73.5049 133.302 73.629 132.834C73.7531 132.366 73.9714 131.933 74.2686 131.565C74.5658 131.198 74.9346 130.904 75.3491 130.706L74.3976 118.926L79.4397 121.854L79.5702 132.591C79.8353 133.359 79.8281 134.205 79.5501 134.968C79.2722 135.731 78.7426 136.358 78.0619 136.731C77.3812 137.103 76.5966 137.195 75.8567 136.989C75.1169 136.783 74.4732 136.294 74.0477 135.614Z" fill="#9F616A"/>
<path d="M75.0033 128.162L74.9624 128.05L69.3997 112.994L68.5171 84.4545L68.6653 84.4432C69.7516 84.36 70.8424 84.5103 71.8736 84.8851C72.9049 85.26 73.8559 85.8518 74.6707 86.6259C75.4855 87.4001 76.1477 88.3408 76.6184 89.3929C77.0891 90.4451 77.3588 91.5874 77.4117 92.7527L78.2275 108.097L80.5402 127.832L75.0033 128.162Z" fill="#E5E5E5"/>
<path d="M39.4692 191.087L42.6669 193.259L52.0082 181.078L47.2886 177.872L39.4692 191.087Z" fill="#9F616A"/>
<path d="M39.315 189.414L45.6126 193.692C46.6769 194.415 47.4298 195.561 47.7053 196.879C47.9807 198.196 47.7564 199.577 47.0817 200.718L46.999 200.857L36.688 193.854L39.315 189.414Z" fill="#2F2E41"/>
<path d="M69.7013 196.925L73.4876 196.925L75.2887 181.278L69.7007 181.279L69.7013 196.925Z" fill="#9F616A"/>
<path d="M68.7358 195.601L76.1923 195.601H76.1927C77.4529 195.601 78.6615 196.137 79.5526 197.092C80.4438 198.047 80.9444 199.341 80.9445 200.692V200.857L68.7361 200.858L68.7358 195.601Z" fill="#2F2E41"/>
<path d="M58.9883 131.367L67.902 188.809C67.902 188.809 66.1485 193.506 68.7787 194.132C71.409 194.758 77.254 193.506 77.254 193.506C77.254 193.506 79.0075 188.809 76.3773 188.183L71.409 128.164L58.9883 131.367Z" fill="#2F2E41"/>
<path d="M64.2488 132.391L58.0736 159.25L42.3299 183.742C42.3299 183.742 36.4849 184.368 39.6997 187.812C42.9144 191.257 44.3757 191.57 44.3757 191.57C44.3757 191.57 49.344 190.943 49.0517 188.438L68.4075 164.029L77.4002 131.451L64.2488 132.391Z" fill="#2F2E41"/>
<path d="M58.8602 134.756L57.3689 125.637C55.123 123.123 59.3665 116.905 59.8396 116.23L59.562 112.363C59.3254 112.32 59.109 112.193 58.9466 112.004C57.5535 110.482 57.647 104.476 57.6517 104.221L56.1143 87.0863L59.9394 84.6954L69.6127 84.3613L74.3368 88.7478L78.8867 133.533L78.7245 133.543L58.8602 134.756Z" fill="#E5E5E5"/>
<path d="M62.2078 137.954C61.818 137.705 61.4839 137.367 61.229 136.965C60.9742 136.562 60.8048 136.105 60.7329 135.624C60.661 135.144 60.6882 134.653 60.8127 134.185C60.9372 133.717 61.1559 133.284 61.4534 132.917L55.9482 122.669L61.6726 123.042L66.0228 132.716C66.5658 133.293 66.8926 134.063 66.9413 134.88C66.9899 135.697 66.7571 136.505 66.2868 137.151C65.8166 137.797 65.1417 138.235 64.3899 138.383C63.6381 138.531 62.8617 138.379 62.2078 137.954Z" fill="#9F616A"/>
<path d="M57.3328 128.371L52.584 116.578L51.7903 92.4854C51.7632 91.6939 51.939 90.9095 52.2988 90.2175C52.6585 89.5255 53.1884 88.9524 53.8308 88.5604L59.3091 84.9736L60.4911 110.301L64.0262 125.438L57.3328 128.371Z" fill="#E5E5E5"/>
<path d="M65.8555 82.0762C69.6094 82.0762 72.6525 78.8158 72.6525 74.7939C72.6525 70.7721 69.6094 67.5117 65.8555 67.5117C62.1017 67.5117 59.0586 70.7721 59.0586 74.7939C59.0586 78.8158 62.1017 82.0762 65.8555 82.0762Z" fill="#9F616A"/>
<path d="M68.313 64.0416C61.4677 61.9267 59.5247 68.0053 59.5247 68.0053C56.2251 70.3506 58.2909 73.2911 58.2909 73.2911C57.4584 73.4892 59.123 78.7091 59.6781 78.577C59.9743 78.5065 60.7359 79.4806 61.3818 80.4043C61.6033 80.404 61.8243 80.4267 62.0417 80.4722L60.7884 75.5047C60.7884 75.5047 65.0129 74.8113 66.3081 72.631C67.5473 70.545 71.6266 69.8864 72.7875 71.2798C72.8561 70.8792 72.9968 70.4966 73.2015 70.1535C73.3601 69.8928 73.5673 69.6702 73.8102 69.4996C72.7838 64.8262 68.313 64.0416 68.313 64.0416Z" fill="#2F2E41"/>
<path opacity="0.2" d="M60.6009 101.073L60.2217 115.569L64.9289 126.199L60.6009 100.688" fill="black"/>
<path d="M117.975 201H0.308835C0.226927 201 0.148373 200.965 0.0904553 200.903C0.0325376 200.841 0 200.757 0 200.669C0 200.581 0.0325376 200.497 0.0904553 200.435C0.148373 200.373 0.226927 200.338 0.308835 200.338H117.975C118.057 200.338 118.135 200.373 118.193 200.435C118.251 200.497 118.284 200.581 118.284 200.669C118.284 200.757 118.251 200.841 118.193 200.903C118.135 200.965 118.057 201 117.975 201Z" fill="#3F3D56"/>
<path d="M101.711 15.6438C101.611 15.5806 101.496 15.5487 101.38 15.552C101.264 15.5552 101.152 15.5934 101.055 15.6622C100.958 15.731 100.882 15.8275 100.834 15.9407C100.786 16.054 100.769 16.1794 100.785 16.3025L101.262 20.0493C101.268 20.1045 101.265 20.1606 101.251 20.2144C101.236 20.2673 101.211 20.3165 101.178 20.3587L98.5075 23.7481C98.4183 23.8572 98.3659 23.9953 98.3587 24.1401C98.3516 24.285 98.3902 24.4282 98.4682 24.5467L98.471 24.5511C98.5457 24.6709 98.6557 24.7605 98.7835 24.8056C98.9112 24.8506 99.0494 24.8487 99.1759 24.7999L101.104 24.0986C101.168 24.0759 101.237 24.0723 101.303 24.0882C101.368 24.104 101.429 24.1387 101.477 24.1885C101.514 24.2245 101.543 24.2683 101.563 24.3169C101.582 24.3656 101.592 24.4181 101.592 24.4712L101.668 31.833C101.669 31.9395 101.694 32.0443 101.741 32.1382C101.788 32.2321 101.855 32.3123 101.938 32.372C102.02 32.4314 102.114 32.4689 102.213 32.4812C102.311 32.4935 102.411 32.4802 102.504 32.4426L116.898 26.5447C117.006 26.5005 117.101 26.4243 117.171 26.325C117.241 26.2257 117.283 26.1072 117.293 25.9832C117.303 25.8593 117.28 25.7348 117.227 25.6242C117.173 25.5136 117.092 25.4214 116.992 25.358L116.796 25.2333L101.711 15.6438ZM101.028 16.2665C101.019 16.1926 101.03 16.1174 101.058 16.0494C101.087 15.9815 101.133 15.9236 101.191 15.8824C101.249 15.8413 101.317 15.8184 101.387 15.8166C101.456 15.8147 101.525 15.8339 101.585 15.8719L116.666 25.4586L116.867 25.5861C116.926 25.6243 116.975 25.6797 117.006 25.7459C117.038 25.8122 117.052 25.8867 117.046 25.9608C117.04 26.035 117.015 26.1059 116.973 26.1655C116.931 26.2251 116.875 26.2709 116.81 26.2978L102.416 32.1957C102.361 32.2184 102.301 32.2263 102.242 32.2189C102.182 32.2114 102.126 32.1888 102.077 32.1529C102.027 32.1169 101.987 32.0688 101.959 32.0126C101.931 31.9564 101.915 31.8937 101.915 31.8299L101.839 24.4681C101.839 24.3953 101.828 24.323 101.805 24.2544L116.459 26.0583C116.516 26.066 116.574 26.052 116.623 26.0188C116.671 25.9856 116.707 25.9353 116.725 25.8765C116.743 25.8178 116.74 25.7543 116.719 25.697C116.697 25.6398 116.658 25.5924 116.607 25.563C116.595 25.5557 116.582 25.5497 116.569 25.545L101.51 20.1594C101.513 20.1107 101.512 20.0616 101.505 20.0132L101.028 16.2665Z" fill="#F1F1F1"/>
<path d="M101.711 15.6438C101.611 15.5806 101.496 15.5487 101.38 15.552C101.264 15.5552 101.152 15.5934 101.055 15.6622C100.958 15.731 100.882 15.8275 100.834 15.9407C100.786 16.054 100.769 16.1794 100.785 16.3025L101.262 20.0493C101.268 20.1045 101.265 20.1606 101.251 20.2144C101.236 20.2673 101.211 20.3165 101.178 20.3587L98.5075 23.7481C98.4183 23.8572 98.3659 23.9953 98.3587 24.1401C98.3516 24.285 98.3902 24.4282 98.4682 24.5467L98.471 24.5511C98.5457 24.6709 98.6557 24.7605 98.7835 24.8056C98.9112 24.8506 99.0494 24.8487 99.1759 24.7999L101.104 24.0986C101.168 24.0759 101.237 24.0723 101.303 24.0882C101.368 24.104 101.429 24.1387 101.477 24.1885C101.514 24.2245 101.543 24.2683 101.563 24.3169C101.582 24.3656 101.592 24.4181 101.592 24.4712L101.668 31.833C101.669 31.9395 101.694 32.0443 101.741 32.1382C101.788 32.2321 101.855 32.3123 101.938 32.372C102.02 32.4314 102.114 32.4689 102.213 32.4812C102.311 32.4935 102.411 32.4802 102.504 32.4426L116.898 26.5447C117.006 26.5005 117.101 26.4243 117.171 26.325C117.241 26.2257 117.283 26.1072 117.293 25.9832C117.303 25.8593 117.28 25.7348 117.227 25.6242C117.173 25.5136 117.092 25.4214 116.992 25.358L116.796 25.2333L101.711 15.6438ZM101.028 16.2665C101.019 16.1926 101.03 16.1174 101.058 16.0494C101.087 15.9815 101.133 15.9236 101.191 15.8824C101.249 15.8413 101.317 15.8184 101.387 15.8166C101.456 15.8147 101.525 15.8339 101.585 15.8719L116.666 25.4586L116.867 25.5861C116.926 25.6243 116.975 25.6797 117.006 25.7459C117.038 25.8122 117.052 25.8867 117.046 25.9608C117.04 26.035 117.015 26.1059 116.973 26.1655C116.931 26.2251 116.875 26.2709 116.81 26.2978L102.416 32.1957C102.361 32.2184 102.301 32.2263 102.242 32.2189C102.182 32.2114 102.126 32.1888 102.077 32.1528C102.027 32.1169 101.987 32.0688 101.959 32.0126C101.931 31.9564 101.915 31.8937 101.915 31.8299L101.839 24.4681C101.839 24.3953 101.828 24.323 101.805 24.2544C101.773 24.1556 101.718 24.0667 101.647 23.9955C101.637 23.9851 101.626 23.9754 101.615 23.9657L101.615 23.9646C101.534 23.8931 101.437 23.8449 101.334 23.8246C101.231 23.8043 101.125 23.8125 101.026 23.8486L99.096 24.5507C99.02 24.5802 98.9368 24.5814 98.8601 24.554C98.7833 24.5266 98.7175 24.4722 98.6732 24.3997L98.6718 24.3975C98.6244 24.3266 98.601 24.2407 98.6053 24.1536C98.6096 24.0666 98.6415 23.9838 98.6956 23.9187L101.366 20.5293C101.395 20.4938 101.419 20.455 101.44 20.4136L101.441 20.4128C101.461 20.3732 101.476 20.3314 101.488 20.2882C101.499 20.2462 101.507 20.2031 101.51 20.1594C101.513 20.1107 101.512 20.0617 101.505 20.0133L101.028 16.2665Z" fill="#E5E5E5"/>
<path d="M101.509 20.1593L116.568 25.5449C116.582 25.5495 116.595 25.5555 116.607 25.5629C116.658 25.5922 116.697 25.6396 116.719 25.6969C116.74 25.7541 116.742 25.8176 116.725 25.8764C116.707 25.9351 116.671 25.9855 116.622 26.0187C116.574 26.0519 116.516 26.0658 116.459 26.0582L101.805 24.2542L101.546 24.2226L101.574 23.9604L101.615 23.9645L101.615 23.9655L116.487 25.7949L101.441 20.4127L101.44 20.4134L101.375 20.3894L101.453 20.1387L101.509 20.1593Z" fill="#E5E5E5"/>
<path d="M269.648 0.0920507L254.562 9.68158L254.366 9.80628C254.266 9.86961 254.185 9.96189 254.132 10.0725C254.078 10.1831 254.055 10.3075 254.065 10.4315C254.075 10.5555 254.117 10.6739 254.187 10.7732C254.257 10.8726 254.352 10.9487 254.461 10.993L268.854 16.8908C268.947 16.9285 269.047 16.9417 269.145 16.9294C269.244 16.9171 269.338 16.8797 269.42 16.8202C269.503 16.7606 269.57 16.6804 269.618 16.5865C269.665 16.4925 269.69 16.3878 269.69 16.2812L269.766 8.91941C269.766 8.86633 269.776 8.81382 269.796 8.76517C269.815 8.71652 269.844 8.67278 269.881 8.63672C269.929 8.58691 269.99 8.55223 270.056 8.5364C270.121 8.52056 270.19 8.52417 270.254 8.54682L272.182 9.24813C272.309 9.2969 272.447 9.2989 272.575 9.2538C272.702 9.20871 272.812 9.11912 272.887 8.9993L272.89 8.99496C272.968 8.87642 273.007 8.73322 272.999 8.58838C272.992 8.44353 272.94 8.30546 272.851 8.19637L270.18 4.80692C270.147 4.7647 270.122 4.71559 270.107 4.66263C270.094 4.60882 270.09 4.55274 270.097 4.4975L270.573 0.750789C270.589 0.62764 270.572 0.502253 270.524 0.388996C270.476 0.275738 270.4 0.179199 270.303 0.110439C270.207 0.0416787 270.094 0.00347947 269.978 0.000226609C269.862 -0.00302625 269.747 0.0288024 269.648 0.0920507ZM270.33 0.714806L269.853 4.4615C269.846 4.50989 269.845 4.55893 269.848 4.60767L254.789 9.99327C254.776 9.9979 254.763 10.0039 254.751 10.0113C254.7 10.0406 254.661 10.088 254.639 10.1453C254.618 10.2025 254.616 10.266 254.633 10.3247C254.651 10.3835 254.687 10.4338 254.735 10.467C254.784 10.5002 254.842 10.5142 254.899 10.5066L269.553 8.70262C269.53 8.77122 269.519 8.84352 269.519 8.91637L269.443 16.2781C269.443 16.3419 269.428 16.4046 269.399 16.4608C269.371 16.5171 269.331 16.5652 269.282 16.6011C269.232 16.637 269.176 16.6596 269.117 16.6671C269.057 16.6746 268.997 16.6666 268.942 16.6439L254.548 10.7461C254.483 10.7192 254.427 10.6733 254.385 10.6138C254.343 10.5542 254.318 10.4833 254.312 10.4091C254.306 10.3349 254.32 10.2604 254.352 10.1942C254.383 10.1279 254.432 10.0725 254.492 10.0343L254.692 9.90682L269.773 0.320144C269.833 0.282121 269.902 0.262945 269.971 0.264808C270.041 0.266672 270.109 0.289501 270.167 0.330681C270.225 0.371862 270.271 0.429728 270.3 0.497658C270.329 0.565588 270.339 0.640858 270.33 0.714806Z" fill="#F1F1F1"/>
<path d="M269.648 0.0920507L254.562 9.68158L254.366 9.80628C254.266 9.86961 254.185 9.96189 254.132 10.0725C254.078 10.1831 254.055 10.3075 254.065 10.4315C254.075 10.5555 254.117 10.6739 254.187 10.7732C254.257 10.8726 254.352 10.9487 254.461 10.993L268.854 16.8908C268.947 16.9285 269.047 16.9417 269.145 16.9294C269.244 16.9171 269.338 16.8797 269.42 16.8202C269.503 16.7606 269.57 16.6804 269.618 16.5865C269.665 16.4925 269.69 16.3878 269.69 16.2812L269.766 8.91941C269.766 8.86633 269.776 8.81382 269.796 8.76517C269.815 8.71652 269.844 8.67278 269.881 8.63672C269.929 8.58691 269.99 8.55223 270.056 8.5364C270.121 8.52056 270.19 8.52417 270.254 8.54682L272.182 9.24813C272.309 9.2969 272.447 9.2989 272.575 9.2538C272.702 9.20871 272.812 9.11912 272.887 8.9993L272.89 8.99496C272.968 8.87642 273.007 8.73322 272.999 8.58838C272.992 8.44353 272.94 8.30546 272.851 8.19637L270.18 4.80692C270.147 4.7647 270.122 4.71559 270.107 4.66263C270.094 4.60882 270.09 4.55274 270.097 4.4975L270.573 0.750789C270.589 0.62764 270.572 0.502253 270.524 0.388996C270.476 0.275738 270.4 0.179199 270.303 0.110439C270.207 0.0416787 270.094 0.00347947 269.978 0.000226609C269.862 -0.00302625 269.747 0.0288024 269.648 0.0920507ZM270.33 0.714806L269.853 4.46151C269.846 4.5099 269.845 4.55893 269.848 4.60768C269.851 4.6513 269.859 4.69445 269.87 4.73639C269.882 4.77962 269.898 4.82142 269.917 4.86109L269.918 4.86183C269.939 4.90325 269.964 4.94208 269.992 4.97757L272.663 8.36697C272.717 8.43202 272.749 8.51487 272.753 8.60188C272.757 8.68889 272.734 8.77489 272.686 8.84574L272.685 8.84791C272.641 8.92045 272.575 8.97483 272.498 9.00223C272.421 9.02964 272.338 9.02846 272.262 8.99889L270.333 8.29683C270.233 8.26078 270.127 8.25252 270.024 8.27282C269.921 8.29313 269.824 8.34132 269.743 8.41285L269.743 8.41391C269.732 8.42365 269.721 8.43334 269.711 8.44377C269.64 8.51498 269.586 8.60383 269.553 8.70261C269.53 8.77121 269.519 8.84351 269.519 8.91636L269.443 16.2781C269.443 16.3419 269.428 16.4046 269.399 16.4608C269.371 16.5171 269.331 16.5652 269.282 16.6011C269.232 16.637 269.176 16.6596 269.117 16.6671C269.057 16.6745 268.997 16.6666 268.942 16.6439L254.548 10.7461C254.483 10.7192 254.427 10.6733 254.385 10.6138C254.343 10.5542 254.318 10.4833 254.312 10.4091C254.306 10.3349 254.32 10.2604 254.352 10.1942C254.383 10.1279 254.432 10.0725 254.492 10.0343L254.692 9.90683L269.773 0.320149C269.833 0.282126 269.902 0.26295 269.971 0.264813C270.041 0.266677 270.109 0.289506 270.167 0.330686C270.225 0.371867 270.271 0.429733 270.3 0.497663C270.329 0.565593 270.339 0.640858 270.33 0.714806Z" fill="#E5E5E5"/>
<path d="M269.905 4.58691L269.983 4.83762L269.918 4.86167L269.917 4.86093L254.871 10.2431L269.742 8.41375L269.743 8.4127L269.783 8.40867L269.812 8.67088L269.553 8.70246L254.899 10.5064C254.842 10.5141 254.784 10.5001 254.735 10.4669C254.687 10.4337 254.65 10.3834 254.633 10.3246C254.615 10.2658 254.617 10.2024 254.639 10.1451C254.66 10.0879 254.7 10.0405 254.751 10.0111C254.763 10.0038 254.776 9.99776 254.789 9.99313L269.848 4.60753L269.905 4.58691Z" fill="#E5E5E5"/>
<path d="M140.559 134.081C140.455 134.138 140.369 134.224 140.31 134.331C140.25 134.438 140.22 134.56 140.223 134.684C140.225 134.809 140.261 134.93 140.324 135.033C140.388 135.137 140.478 135.22 140.584 135.271L143.794 136.842C143.841 136.865 143.884 136.899 143.919 136.94C143.953 136.981 143.978 137.03 143.994 137.083L145.24 141.313C145.279 141.452 145.36 141.573 145.47 141.657C145.581 141.741 145.714 141.782 145.849 141.775L145.854 141.775C145.989 141.771 146.118 141.719 146.222 141.628C146.326 141.536 146.398 141.41 146.427 141.269L146.905 139.148C146.921 139.078 146.955 139.014 147.002 138.963C147.05 138.912 147.11 138.876 147.175 138.858C147.223 138.845 147.273 138.842 147.322 138.85C147.371 138.858 147.418 138.877 147.459 138.905L153.307 142.771C153.392 142.828 153.488 142.861 153.587 142.869C153.686 142.876 153.786 142.858 153.877 142.815C153.968 142.772 154.048 142.707 154.11 142.624C154.172 142.542 154.215 142.444 154.235 142.34L157.275 126.154C157.298 126.032 157.288 125.905 157.247 125.789C157.206 125.673 157.136 125.571 157.043 125.496C156.951 125.421 156.84 125.375 156.724 125.364C156.609 125.353 156.493 125.377 156.389 125.434L156.186 125.545L140.559 134.081ZM140.685 135.031C140.622 135 140.568 134.951 140.53 134.888C140.492 134.826 140.471 134.753 140.469 134.679C140.468 134.604 140.486 134.531 140.522 134.466C140.558 134.402 140.61 134.35 140.672 134.317L156.294 125.783L156.502 125.67C156.564 125.636 156.633 125.622 156.703 125.628C156.772 125.635 156.838 125.663 156.893 125.708C156.949 125.752 156.991 125.813 157.016 125.883C157.041 125.952 157.047 126.028 157.033 126.101L153.994 142.287C153.982 142.35 153.956 142.409 153.918 142.458C153.881 142.508 153.833 142.547 153.778 142.572C153.724 142.598 153.664 142.609 153.605 142.604C153.545 142.599 153.488 142.58 153.437 142.546L147.589 138.68C147.532 138.641 147.468 138.613 147.402 138.597L156.657 126.291C156.693 126.243 156.713 126.183 156.713 126.122C156.713 126.06 156.692 126 156.655 125.953C156.618 125.906 156.567 125.874 156.51 125.863C156.454 125.851 156.395 125.862 156.345 125.892C156.333 125.899 156.321 125.908 156.31 125.917L144.014 136.676C143.977 136.647 143.938 136.622 143.896 136.602L140.685 135.031Z" fill="#F1F1F1"/>
<path d="M140.559 134.081C140.455 134.138 140.369 134.224 140.31 134.331C140.25 134.438 140.22 134.56 140.223 134.684C140.225 134.809 140.261 134.93 140.324 135.033C140.388 135.137 140.478 135.22 140.584 135.271L143.794 136.842C143.841 136.865 143.884 136.899 143.919 136.94C143.953 136.981 143.978 137.03 143.994 137.083L145.24 141.313C145.279 141.452 145.36 141.573 145.47 141.657C145.581 141.741 145.714 141.782 145.849 141.775L145.854 141.775C145.989 141.771 146.118 141.719 146.222 141.628C146.326 141.536 146.398 141.41 146.427 141.269L146.905 139.148C146.921 139.078 146.955 139.014 147.002 138.963C147.05 138.912 147.11 138.876 147.175 138.858C147.223 138.845 147.273 138.842 147.322 138.85C147.371 138.858 147.418 138.877 147.459 138.905L153.307 142.771C153.392 142.828 153.488 142.861 153.587 142.869C153.686 142.876 153.786 142.858 153.877 142.815C153.968 142.772 154.048 142.707 154.11 142.624C154.172 142.542 154.215 142.444 154.235 142.34L157.275 126.154C157.298 126.032 157.288 125.905 157.247 125.789C157.206 125.673 157.136 125.571 157.043 125.496C156.951 125.421 156.84 125.375 156.724 125.364C156.609 125.353 156.493 125.377 156.389 125.434L156.186 125.545L140.559 134.081ZM140.685 135.031C140.622 135 140.568 134.951 140.53 134.888C140.492 134.826 140.471 134.753 140.469 134.679C140.468 134.604 140.486 134.531 140.522 134.466C140.558 134.402 140.61 134.35 140.672 134.317L156.294 125.783L156.502 125.67C156.564 125.636 156.633 125.622 156.703 125.628C156.772 125.635 156.838 125.663 156.893 125.708C156.949 125.752 156.991 125.813 157.016 125.883C157.041 125.952 157.047 126.028 157.033 126.101L153.994 142.287C153.982 142.35 153.956 142.409 153.918 142.458C153.881 142.508 153.833 142.547 153.778 142.572C153.724 142.598 153.664 142.609 153.605 142.604C153.545 142.599 153.488 142.58 153.437 142.546L147.589 138.68C147.532 138.641 147.468 138.613 147.402 138.597C147.307 138.574 147.208 138.575 147.113 138.602C147.1 138.605 147.086 138.61 147.073 138.614L147.072 138.614C146.972 138.649 146.883 138.711 146.811 138.794C146.74 138.876 146.69 138.977 146.665 139.086L146.188 141.209C146.171 141.293 146.127 141.369 146.065 141.424C146.002 141.479 145.924 141.509 145.843 141.511L145.84 141.511C145.759 141.516 145.679 141.491 145.613 141.441C145.546 141.39 145.498 141.317 145.475 141.233L144.229 137.004C144.216 136.959 144.199 136.916 144.177 136.875L144.177 136.874C144.156 136.835 144.131 136.798 144.104 136.765C144.077 136.732 144.046 136.702 144.014 136.676C143.977 136.647 143.938 136.622 143.896 136.602L140.685 135.031Z" fill="#E5E5E5"/>
<path d="M144.014 136.676L156.31 125.918C156.321 125.908 156.333 125.899 156.345 125.892C156.395 125.862 156.454 125.852 156.511 125.863C156.567 125.874 156.619 125.906 156.655 125.953C156.692 126 156.713 126.06 156.713 126.122C156.713 126.184 156.693 126.243 156.657 126.291L147.402 138.597L147.239 138.815L147.047 138.649L147.072 138.615L147.073 138.615L156.464 126.125L144.177 136.874L144.177 136.875L144.123 136.921L143.967 136.717L144.014 136.676Z" fill="#E5E5E5"/>
</g>
<defs>
<clipPath id="clip0_6076_4459">
<rect width="273" height="201" fill="white"/>
</clipPath>
</defs>
</svg>
