<svg width="295" height="191" viewBox="0 0 295 191" fill="none" xmlns="http://www.w3.org/2000/svg">
<g clip-path="url(#clip0_6076_4587)">
<path d="M268.659 190.435L260.262 165.044C260.262 165.044 269.498 174.298 269.498 181.892L267.841 164.332C267.841 164.332 272.577 170.739 272.103 180.468C271.63 190.197 268.659 190.435 268.659 190.435Z" fill="#E6E6E6"/>
<path d="M88.3358 167.316L80.1406 142.536C80.1406 142.536 89.1547 151.568 89.1547 158.979L87.5368 141.841C87.5368 141.841 92.1594 148.094 91.6972 157.589C91.2349 167.084 88.3358 167.316 88.3358 167.316Z" fill="#E6E6E6"/>
<path d="M216.246 178.751C216.26 195.052 183.993 190.038 144.492 190.072C104.99 190.106 73.2113 195.175 73.1973 178.874C73.1832 162.573 105.438 159 144.94 158.966C184.442 158.932 216.232 162.45 216.246 178.751Z" fill="#E6E6E6"/>
<path d="M294.5 190.062H0.5V190.808H294.5V190.062Z" fill="#3F3D56"/>
<path d="M188.562 156.737H183.398L180.94 136.777H188.562V156.737Z" fill="#A0616A"/>
<path d="M179.135 155.258H189.669V161.541H173.438V160.966C173.438 159.452 174.038 158 175.107 156.93C176.175 155.859 177.624 155.258 179.135 155.258Z" fill="#2F2E41"/>
<path d="M226.521 186.195H221.357L218.899 166.235H226.521V186.195Z" fill="#A0616A"/>
<path d="M217.095 184.717H227.628V191H211.397V190.425C211.397 188.911 211.998 187.459 213.066 186.389C214.135 185.318 215.584 184.717 217.095 184.717Z" fill="#2F2E41"/>
<path d="M250.342 126.9C250.699 126.466 250.957 125.959 251.098 125.414C251.238 124.87 251.257 124.301 251.155 123.748C251.052 123.196 250.829 122.672 250.503 122.215C250.176 121.757 249.754 121.377 249.265 121.101L237.27 72.1426L229.601 75.4488L243.868 122.787C243.459 123.641 243.378 124.616 243.638 125.526C243.899 126.436 244.484 127.218 245.282 127.725C246.08 128.232 247.036 128.428 247.969 128.276C248.901 128.124 249.746 127.634 250.342 126.9Z" fill="#A0616A"/>
<path d="M240.987 27.954C240.559 27.5057 240.038 27.1568 239.461 26.9319C238.884 26.7071 238.265 26.6118 237.647 26.6528C237.029 26.6938 236.427 26.87 235.885 27.1691C235.342 27.4681 234.872 27.8828 234.506 28.3838L215.941 30.5194L218.766 37.6944L235.649 34.5282C236.53 35.0874 237.585 35.3036 238.614 35.1356C239.643 34.9676 240.575 34.4273 241.233 33.6169C241.891 32.8066 242.229 31.7825 242.184 30.7388C242.139 29.6951 241.713 28.7043 240.987 27.954Z" fill="#A0616A"/>
<path d="M210.394 121.822L218.495 182.743L228.577 180.663C228.577 180.663 227.095 136.296 232.136 130.947C237.178 125.598 225.652 116.229 225.652 116.229L210.394 121.822Z" fill="#2F2E41"/>
<path d="M213.743 105.042L210.022 110.635C210.022 110.635 181.366 98.703 181.366 117.72C181.366 136.738 179.726 149.644 179.133 150.535C178.54 151.427 185.995 153.74 189.553 153.145C189.553 153.145 193.943 122.486 193.647 120.704C193.647 120.704 221.757 134.513 227.095 133.325C232.433 132.136 233.694 127.928 234.584 125.551C235.473 123.174 234.211 104.296 234.211 104.296L216.419 98.8555L213.743 105.042Z" fill="#2F2E41"/>
<path d="M214.245 71.4589L213.184 70.1834C213.184 70.1834 201.304 43.3991 205.971 36.1715C210.639 28.944 231.005 27.8811 231.642 28.3063C232.278 28.7314 230.121 34.2513 231.606 36.8022C231.606 36.8022 215.829 40.2295 214.769 40.6547C213.708 41.0798 222.943 56.7912 222.943 56.7912L221.883 66.3571L214.245 71.4589Z" fill="#E0E0E0"/>
<path d="M235.036 58.279C235.036 58.279 224.004 59.5545 223.58 59.5545C223.156 59.5545 222.944 56.791 222.944 56.791L213.185 70.1832C213.185 70.1832 208.377 109.036 209.65 108.398C210.922 107.76 234.4 111.423 234.612 109.722C234.824 108.021 234.4 99.5185 235.036 99.0933C235.673 98.6682 246.068 72.3089 246.068 72.3089C246.068 72.3089 245.007 66.782 241.401 64.8688C237.794 62.9557 235.036 58.279 235.036 58.279Z" fill="#E0E0E0"/>
<path d="M242.673 68.6953L246.068 72.3091C246.068 72.3091 251.111 113.835 248.353 115.11C245.595 116.386 240.166 116.229 240.166 116.229L234.824 96.5426L242.673 68.6953Z" fill="#E0E0E0"/>
<path d="M224.435 55.6497C229.828 55.6497 234.2 51.2691 234.2 45.8654C234.2 40.4616 229.828 36.0811 224.435 36.0811C219.042 36.0811 214.67 40.4616 214.67 45.8654C214.67 51.2691 219.042 55.6497 224.435 55.6497Z" fill="#A0616A"/>
<path d="M222.143 47.3917C222.011 45.3615 219.455 45.2919 217.425 45.2727C215.395 45.2535 212.967 45.3261 211.818 43.6486C211.059 42.54 211.204 41.0009 211.831 39.8123C212.459 38.6237 213.49 37.7096 214.505 36.8301C217.126 34.5596 219.826 32.3072 222.973 30.8539C226.119 29.4006 229.805 28.8134 233.068 29.98C237.076 31.4131 242.495 38.79 242.962 43.0283C243.43 47.2666 241.74 51.5872 238.89 54.7543C236.041 57.9214 229.519 56.6436 225.415 57.7703C227.91 54.2316 226.265 47.8018 222.268 46.1493L222.143 47.3917Z" fill="#2F2E41"/>
<path d="M135.115 173.953C148.062 173.953 158.557 163.437 158.557 150.465C158.557 137.493 148.062 126.977 135.115 126.977C122.169 126.977 111.674 137.493 111.674 150.465C111.674 163.437 122.169 173.953 135.115 173.953Z" fill="#FF2020"/>
<path d="M119.461 125.308C116.212 125.308 113.033 124.365 110.308 122.592C107.583 120.819 105.429 118.293 104.108 115.319L66.9103 31.3835C65.6781 28.6032 65.0264 25.5997 64.9953 22.5577C64.9642 19.5156 65.5543 16.4994 66.7294 13.6943C67.9044 10.8892 69.6396 8.35453 71.8282 6.24609C74.0169 4.13765 76.6127 2.49998 79.4563 1.43374C82.2998 0.36751 85.3309 -0.104765 88.3633 0.0459535C91.3956 0.196672 94.3652 0.967199 97.0895 2.31017C99.8137 3.65314 102.235 5.54019 104.205 7.85531C106.174 10.1704 107.651 12.8647 108.543 15.7726L135.478 103.557C136.249 106.069 136.422 108.728 135.981 111.32C135.541 113.911 134.5 116.363 132.942 118.478C131.385 120.594 129.354 122.313 127.012 123.499C124.671 124.686 122.084 125.305 119.461 125.308Z" fill="#FF2020"/>
</g>
<defs>
<clipPath id="clip0_6076_4587">
<rect width="294" height="191" fill="white" transform="translate(0.5)"/>
</clipPath>
</defs>
</svg>
