<svg width="184" height="208" viewBox="0 0 184 208" fill="none" xmlns="http://www.w3.org/2000/svg">
<g clip-path="url(#clip0_6076_4503)">
<path d="M118.151 153.997C118.562 154.217 119.03 154.305 119.493 154.249C119.955 154.194 120.389 153.997 120.736 153.686C121.083 153.375 121.326 152.965 121.433 152.511C121.539 152.057 121.504 151.581 121.331 151.148C121.377 150.917 121.411 150.752 121.457 150.521C122.345 149.691 123.461 149.145 124.661 148.954C125.862 148.762 127.092 148.934 128.194 149.448C129.296 149.961 130.219 150.792 130.847 151.835C131.474 152.878 131.776 154.084 131.714 155.3C131.433 162.155 131.771 169.553 127.221 175.08C147.987 158.085 157.455 129.135 151.114 103.096C148.002 98.754 146.55 92.9853 147.946 87.7577C149.697 89.4633 153.111 89.0051 152.589 86.0524C152.309 84.8854 152.019 83.722 151.74 82.5551C163.7 77.881 166.823 95.6914 152.655 102.943C153.804 107.893 154.434 112.95 154.533 118.032C156.133 113.45 158.795 109.314 162.302 105.964C165.698 102.902 170.187 101.102 174.364 99.0474C179.447 96.5413 185.087 101.51 183.086 106.814C179.703 106.38 177.309 110.43 180.379 112.607C174.987 121.677 164.647 127.442 154.141 127.533C153.079 137.882 149.826 147.886 144.599 156.877C151.311 146.657 164.298 149.6 174.563 149.164C175.244 149.078 175.935 149.193 176.552 149.493C177.169 149.794 177.686 150.268 178.038 150.858C178.391 151.448 178.565 152.127 178.539 152.814C178.512 153.501 178.287 154.166 177.89 154.726C176.539 154.647 175.185 154.702 173.845 154.891C173.215 154.985 172.629 155.271 172.168 155.711C171.707 156.151 171.393 156.723 171.269 157.348C171.146 157.974 171.218 158.623 171.477 159.205C171.736 159.788 172.168 160.277 172.715 160.604C163.711 168.87 149.759 170.647 138.809 165.372C135.572 169.456 131.919 173.192 127.91 176.52L111.631 168.748C111.659 168.539 111.695 168.327 111.729 168.121C113.191 168.935 114.746 169.567 116.361 170.003C114.625 163.372 112.689 159.489 118.151 153.997H118.151Z" fill="#F2F2F2"/>
<path d="M89.3855 138.312C89.088 138.671 88.6874 138.929 88.2383 139.052C87.7891 139.175 87.3131 139.157 86.8745 139C86.436 138.844 86.0563 138.555 85.7867 138.175C85.5172 137.795 85.3709 137.341 85.3676 136.874C85.238 136.678 85.1449 136.538 85.0152 136.342C83.8796 135.908 82.6405 135.824 81.4569 136.1C80.2732 136.377 79.1989 137.001 78.3717 137.892C77.5444 138.784 77.002 139.903 76.8138 141.106C76.6256 142.308 76.8003 143.539 77.3154 144.642C80.158 150.885 82.6311 157.864 88.9265 161.263C63.2938 153.369 43.6209 130.134 39.6869 103.624C40.9332 98.4264 40.1048 92.5353 36.8435 88.2211C35.8642 90.4622 32.5302 91.3274 31.9011 88.3957C31.7208 87.2093 31.5508 86.0224 31.3704 84.8359C18.5331 85.0253 22.3492 102.7 38.2016 104.064C39.0017 109.082 40.3234 114.004 42.1454 118.747C38.9384 115.108 34.9145 112.283 30.4047 110.505C26.107 108.953 21.2709 108.981 16.6289 108.657C10.9779 108.256 7.6252 114.988 11.4762 119.144C14.4463 117.465 18.189 120.311 16.1652 123.487C24.5756 129.85 36.323 131.283 46.0871 127.399C50.969 136.582 57.7493 144.618 65.9761 150.971C55.9113 144.041 44.9912 151.672 35.3213 155.146C34.6582 155.324 34.0611 155.691 33.6027 156.203C33.1444 156.715 32.8446 157.349 32.74 158.028C32.6355 158.708 32.7306 159.403 33.0138 160.029C33.297 160.655 33.756 161.185 34.3349 161.555C35.5556 160.971 36.8311 160.51 38.1426 160.179C38.7613 160.028 39.4115 160.072 40.0043 160.305C40.597 160.538 41.1032 160.949 41.4535 161.482C41.8038 162.015 41.981 162.643 41.9609 163.28C41.9407 163.918 41.7242 164.533 41.341 165.043C52.7933 169.297 66.3838 165.672 74.5383 156.651C79.0748 159.21 83.8647 161.29 88.8306 162.858L100.98 149.511C100.876 149.328 100.762 149.145 100.653 148.967C99.6063 150.273 98.4035 151.446 97.0717 152.459C96.1829 145.663 96.5124 141.335 89.386 138.312L89.3855 138.312Z" fill="#F2F2F2"/>
<path d="M92.5124 81.9122C92.9757 81.8653 93.4135 81.6769 93.7663 81.3726C94.1191 81.0682 94.37 80.6626 94.485 80.2107C94.5999 79.7587 94.5734 79.2823 94.409 78.846C94.2445 78.4097 93.9501 78.0345 93.5657 77.7714C93.4758 77.5543 93.4112 77.3983 93.3213 77.1812C93.5965 75.9956 94.219 74.9193 95.1089 74.0903C95.9988 73.2614 97.1157 72.7174 98.3163 72.5283C99.5169 72.3391 100.747 72.5133 101.848 73.0286C102.949 73.5439 103.871 74.3767 104.496 75.4204C108.08 81.2686 112.479 87.2208 111.779 94.3494C119.556 68.6465 111.299 39.3265 91.5384 21.252C86.5377 19.3846 82.121 15.4063 80.3691 10.2874C82.7724 10.7255 85.351 8.4391 83.2742 6.27919C82.3922 5.46673 81.5041 4.66263 80.6222 3.85012C87.9488 -6.7085 100.457 6.33306 92.7324 20.2638C96.4425 23.7316 99.7805 27.5782 102.692 31.7411C101.469 27.0444 101.376 22.124 102.423 17.3846C103.537 12.947 106.262 8.94553 108.585 4.90807C111.409 -0.0103555 118.858 0.964449 120.15 6.48493C117.1 8.01423 117.367 12.7132 121.127 12.8055C121.7 23.346 116.326 33.9054 107.656 39.8475C112.536 49.0321 115.405 59.1529 116.072 69.5352C115.953 57.3036 128.373 52.4942 136.651 46.4014C137.169 45.9498 137.806 45.6587 138.486 45.5637C139.166 45.4688 139.859 45.574 140.48 45.8666C141.101 46.1591 141.623 46.6264 141.984 47.2114C142.344 47.7964 142.527 48.4738 142.51 49.161C141.345 49.8491 140.251 50.6514 139.244 51.5561C138.773 51.9855 138.446 52.5502 138.308 53.1729C138.17 53.7955 138.228 54.4457 138.474 55.0342C138.719 55.6227 139.141 56.1207 139.68 56.46C140.219 56.7993 140.85 56.9633 141.486 56.9294C138.614 68.8194 128.021 78.085 115.994 79.8204C115.58 85.0185 114.628 90.1594 113.153 95.1604L95.3119 97.799C95.2186 97.61 95.1308 97.4135 95.044 97.2235C96.7107 97.0832 98.354 96.7391 99.9372 96.1988C94.8042 91.6643 91.0356 89.521 92.5119 81.9125L92.5124 81.9122Z" fill="#F2F2F2"/>
<path d="M110.456 76.183C102.334 76.183 97.9282 75.189 96.3897 73.0671C95.0321 71.195 95.9422 68.7248 96.9961 65.8647C97.7536 63.8089 98.612 61.4789 98.612 59.1729C98.612 47.9567 104.291 42.2695 115.49 42.2695C121.062 42.2695 127.045 45.234 131.495 50.1996C135.54 54.7138 137.555 60.1166 137.023 65.0225C136.587 69.0458 134.717 71.6917 131.138 73.3497L130.929 73.4466L130.87 73.2235C130.561 72.0687 130.037 70.9825 129.328 70.0213C129.259 71.5301 128.879 73.0083 128.212 74.363L128.174 74.4403L128.091 74.464C124.041 75.6195 119.233 75.9325 115.498 76.076C113.679 76.147 111.999 76.1826 110.456 76.183Z" fill="#2F2E41"/>
<path d="M112.67 91.8107C112.359 90.8943 111.834 90.0654 111.138 89.3928C110.443 88.7203 109.598 88.2235 108.672 87.9437C107.747 87.6638 106.768 87.6091 105.818 87.7839C104.867 87.9587 103.972 88.358 103.206 88.9487L76.4892 104.946L68.1291 84.5167C68.8353 83.4791 69.1953 82.2442 69.1574 80.989C69.1195 79.7338 68.6856 78.523 67.9181 77.53C67.1505 76.5371 66.0887 75.813 64.8848 75.4618C63.681 75.1106 62.397 75.1502 61.2171 75.575C60.0371 75.9998 59.0218 76.7879 58.3168 77.8263C57.6117 78.8647 57.2531 80.1 57.2925 81.3552C57.3318 82.6103 57.767 83.8207 58.5357 84.8127C59.3044 85.8048 60.367 86.5276 61.5712 86.8775C62.0865 92.7685 64.9501 119.099 74.9121 118.142C83.2856 117.338 104.08 103.468 110.539 98.659C111.573 97.8904 112.336 96.8131 112.719 95.5824C113.101 94.3517 113.084 93.0311 112.67 91.8107Z" fill="#FFB6B6"/>
<path d="M132.803 208H109.55L105.65 188.691L104.385 208H82.7852C82.7935 192.836 83.5821 177.683 85.1481 162.602L85.4158 161.688L85.8387 160.227L86.1065 159.31L90.5763 143.938L90.9294 142.718H117.845C119.394 144.175 120.823 145.755 122.117 147.443C122.556 148.002 123.013 148.609 123.483 149.261C123.809 149.724 124.146 150.21 124.484 150.719C127.483 155.19 129.725 160.127 131.119 165.329V165.333C131.356 166.223 131.565 167.134 131.747 168.065V168.069C131.91 168.897 132.054 169.736 132.166 170.595C132.252 171.22 132.326 171.854 132.38 172.495C132.703 176.047 132.59 179.625 132.042 183.15L132.803 208Z" fill="#2F2E41"/>
<path d="M9.51502 31.4442C11.0251 30.8588 11.9197 29.5313 11.513 28.4792C11.1064 27.4272 9.55252 27.0489 8.0424 27.6343C6.53229 28.2198 5.63776 29.5472 6.04442 30.5993C6.45107 31.6514 8.00491 32.0297 9.51502 31.4442Z" fill="#E6E6E6"/>
<path d="M28.5282 29.0018C30.0383 28.4164 30.9329 27.0889 30.5262 26.0369C30.1196 24.9848 28.5657 24.6065 27.0556 25.1919C25.5455 25.7774 24.6509 27.1048 25.0576 28.1569C25.4643 29.209 27.0181 29.5873 28.5282 29.0018Z" fill="#3F3D56"/>
<path d="M7.86562 47.6903C9.37573 47.1049 10.2703 45.7774 9.86362 44.7253C9.45696 43.6733 7.90311 43.295 6.393 43.8804C4.88288 44.4658 3.98835 45.7933 4.395 46.8454C4.80165 47.8975 6.3555 48.2758 7.86562 47.6903Z" fill="#FF6584"/>
<path d="M2.36534 54.8564C3.05813 54.6922 3.42867 53.7506 3.19295 52.7532C2.95724 51.7558 2.20452 51.0804 1.51173 51.2446C0.81894 51.4089 0.448412 52.3505 0.68413 53.3479C0.919848 54.3453 1.67255 55.0207 2.36534 54.8564Z" fill="#E6E6E6"/>
<path d="M2.25206 66.9893C2.94485 66.825 3.31538 65.8834 3.07966 64.886C2.84394 63.8886 2.09124 63.2132 1.39845 63.3775C0.705659 63.5417 0.335131 64.4833 0.570849 65.4807C0.806567 66.4781 1.55927 67.1535 2.25206 66.9893Z" fill="#3F3D56"/>
<path d="M18.94 41.8594C19.6328 41.6951 20.0034 40.7535 19.7676 39.7561C19.5319 38.7587 18.7792 38.0834 18.0864 38.2476C17.3936 38.4118 17.0231 39.3534 17.2588 40.3508C17.4946 41.3482 18.2473 42.0236 18.94 41.8594Z" fill="#E6E6E6"/>
<path d="M8.92589 39.4238C9.61868 39.2596 9.98921 38.3179 9.75349 37.3206C9.51777 36.3232 8.76507 35.6478 8.07228 35.812C7.37949 35.9762 7.00896 36.9179 7.24468 37.9153C7.48039 38.9126 8.2331 39.588 8.92589 39.4238Z" fill="#FF6584"/>
<path d="M19.5401 28.2519C20.2329 28.0877 20.6035 27.1461 20.3677 26.1487C20.132 25.1513 19.3793 24.4759 18.6865 24.6402C17.9937 24.8044 17.6232 25.746 17.8589 26.7434C18.0947 27.7408 18.8474 28.4162 19.5401 28.2519Z" fill="#3F3D56"/>
<path d="M24.4764 112.224C25.2066 111.365 24.7989 109.816 23.5658 108.765C22.3327 107.714 20.7412 107.558 20.011 108.417C19.2809 109.276 19.6886 110.825 20.9217 111.876C22.1547 112.927 23.7463 113.083 24.4764 112.224Z" fill="#E6E6E6"/>
<path d="M13.2782 96.6418C14.0083 95.7827 13.6006 94.2341 12.3676 93.183C11.1345 92.1318 9.54295 91.9761 8.81279 92.8351C8.08264 93.6942 8.49034 95.2428 9.72342 96.2939C10.9565 97.3451 12.548 97.5008 13.2782 96.6418Z" fill="#3F3D56"/>
<path d="M39.5262 105.941C40.2564 105.082 39.8487 103.533 38.6156 102.482C37.3825 101.431 35.791 101.275 35.0608 102.134C34.3307 102.993 34.7384 104.542 35.9715 105.593C37.2045 106.644 38.7961 106.8 39.5262 105.941Z" fill="#FF6584"/>
<path d="M47.003 106.112C47.7665 105.43 48.0012 104.445 47.5271 103.914C47.053 103.382 46.0498 103.504 45.2863 104.186C44.5228 104.869 44.2881 105.853 44.7622 106.385C45.2362 106.917 46.2395 106.795 47.003 106.112Z" fill="#E6E6E6"/>
<path d="M57.71 100.436C58.4736 99.7532 58.7082 98.7687 58.2341 98.2368C57.7601 97.7048 56.7568 97.8269 55.9933 98.5094C55.2298 99.1919 54.9951 100.176 55.4692 100.708C55.9433 101.24 56.9465 101.118 57.71 100.436Z" fill="#3F3D56"/>
<path d="M27.6993 97.7042C28.4628 97.0217 28.6975 96.0372 28.2234 95.5053C27.7493 94.9734 26.7461 95.0954 25.9826 95.7779C25.219 96.4604 24.9844 97.4449 25.4585 97.9768C25.9325 98.5087 26.9358 98.3867 27.6993 97.7042Z" fill="#E6E6E6"/>
<path d="M30.3287 107.683C31.0922 107 31.3268 106.016 30.8528 105.484C30.3787 104.952 29.3755 105.074 28.612 105.756C27.8484 106.439 27.6138 107.423 28.0879 107.955C28.5619 108.487 29.5652 108.365 30.3287 107.683Z" fill="#FF6584"/>
<path d="M15.4654 103.655C16.2289 102.973 16.4636 101.988 15.9895 101.456C15.5154 100.925 14.5122 101.047 13.7487 101.729C12.9852 102.412 12.7505 103.396 13.2246 103.928C13.6986 104.46 14.7019 104.338 15.4654 103.655Z" fill="#3F3D56"/>
<path d="M99.7053 12.2884C100.716 11.7905 100.956 10.2072 100.242 8.75193C99.527 7.29667 98.1282 6.52057 97.1174 7.01845C96.1065 7.51632 95.8664 9.09964 96.5811 10.5549C97.2957 12.0101 98.6944 12.7863 99.7053 12.2884Z" fill="#E6E6E6"/>
<path d="M103.801 31.0423C104.811 30.5444 105.051 28.9611 104.337 27.5058C103.622 26.0506 102.223 25.2745 101.213 25.7724C100.202 26.2702 99.9616 27.8535 100.676 29.3088C101.391 30.764 102.79 31.5402 103.801 31.0423Z" fill="#3F3D56"/>
<path d="M83.4011 12.0667C84.412 11.5688 84.6521 9.9855 83.9375 8.53025C83.2228 7.075 81.8241 6.29888 80.8132 6.79676C79.8024 7.29463 79.5622 8.87796 80.2769 10.3332C80.9915 11.7885 82.3903 12.5646 83.4011 12.0667Z" fill="#FF6584"/>
<path d="M74.8315 6.1148C75.8029 5.79225 76.4087 4.98216 76.1847 4.30539C75.9606 3.62863 74.9915 3.34147 74.0201 3.66402C73.0487 3.98657 72.4429 4.79668 72.6669 5.47344C72.891 6.15021 73.8601 6.43735 74.8315 6.1148Z" fill="#E6E6E6"/>
<path d="M62.7538 7.065C63.7252 6.74245 64.3311 5.93235 64.107 5.25558C63.883 4.57882 62.9139 4.29167 61.9425 4.61422C60.9711 4.93677 60.3652 5.74687 60.5893 6.42363C60.8133 7.1004 61.7824 7.38755 62.7538 7.065Z" fill="#3F3D56"/>
<path d="M89.2113 21.5113C90.1828 21.1887 90.7886 20.3786 90.5646 19.7019C90.3405 19.0251 89.3714 18.738 88.4 19.0605C87.4286 19.3831 86.8227 20.1932 87.0468 20.8699C87.2708 21.5467 88.2399 21.8338 89.2113 21.5113Z" fill="#E6E6E6"/>
<path d="M90.7563 11.3082C91.7277 10.9856 92.3335 10.1755 92.1095 9.49874C91.8854 8.82197 90.9163 8.53483 89.9449 8.85738C88.9735 9.17993 88.3677 9.99003 88.5917 10.6668C88.8158 11.3436 89.7849 11.6307 90.7563 11.3082Z" fill="#FF6584"/>
<path d="M102.799 20.9175C103.77 20.595 104.376 19.7849 104.152 19.1081C103.928 18.4313 102.959 18.1442 101.987 18.4668C101.016 18.7893 100.41 19.5994 100.634 20.2762C100.858 20.9529 101.827 21.2401 102.799 20.9175Z" fill="#3F3D56"/>
<path d="M106.528 79.3054L119.338 78.6445L125.288 88.0604C125.288 88.0604 136.484 89.9348 135.708 103.147C134.932 116.358 122.086 127.952 122.086 127.952L122.635 134.832L121.682 137.561L121.804 139.093L123.105 140.716L123.239 142.394L122.086 145.049L123.654 147.592L90.699 144.394L89.494 139.998L91.2519 137.637L90.27 134.558L91.7462 131.596L92.5159 122.188C92.5159 122.188 84.0946 109.517 93.762 99.9739L97.6421 93.368L101.983 88.0634L106.528 79.3054Z" fill="#207BFF"/>
<path d="M112.896 76.6465C120.393 76.6465 126.47 70.5602 126.47 63.0523C126.47 55.5444 120.393 49.458 112.896 49.458C105.4 49.458 99.3223 55.5444 99.3223 63.0523C99.3223 70.5602 105.4 76.6465 112.896 76.6465Z" fill="#FFB6B6"/>
<path d="M111.079 62.2291C109.909 62.2291 108.74 62.196 107.572 62.13L107.363 62.1182L107.39 61.9107C107.563 60.6131 107.466 59.2939 107.106 58.0355C106.495 59.4684 105.586 60.7543 104.439 61.8074L104.374 61.8668L104.287 61.8573C101.114 61.5097 97.9695 60.9354 94.8779 60.1387L94.7595 60.1084L94.7358 59.9884C94.505 58.8529 94.3854 57.6975 94.3789 56.5386C94.3789 52.9186 95.6894 49.8718 98.0691 47.9595C100.659 45.8779 104.372 45.2377 108.527 46.1558H121.815C123.275 46.1575 124.676 46.7394 125.709 47.7738C126.742 48.8083 127.323 50.2108 127.324 51.6738V60.1006L127.179 60.1385C121.924 61.5218 116.513 62.2243 111.079 62.2291Z" fill="#2F2E41"/>
<path d="M18.4568 47.1075C17.862 47.3253 17.3778 47.7706 17.1104 48.3456C16.8429 48.9206 16.8142 49.5783 17.0304 50.1745L31.3645 89.5646C31.5821 90.1603 32.0267 90.6453 32.6008 90.9131C33.1749 91.181 33.8316 91.2098 34.427 90.9933L90.0602 70.6879C90.655 70.47 91.1393 70.0247 91.4067 69.4497C91.6741 68.8748 91.7028 68.217 91.4866 67.6208L77.1525 28.2307C76.9349 27.635 76.4904 27.15 75.9162 26.8822C75.3421 26.6144 74.6854 26.5855 74.0901 26.8021L18.4568 47.1075Z" fill="#CCCCCC"/>
<path d="M69.355 76.0739L35.3017 88.5029C34.661 88.736 33.9541 88.705 33.3362 88.4167C32.7183 88.1284 32.2398 87.6065 32.0057 86.9653L19.0047 51.2388C18.772 50.5971 18.803 49.8892 19.0908 49.2704C19.3786 48.6516 19.8998 48.1723 20.54 47.9378L73.0295 28.7798C73.6702 28.5468 74.3771 28.5778 74.995 28.8661C75.613 29.1543 76.0915 29.6763 76.3256 30.3175L82.6075 47.5802C84.6161 53.119 84.3488 59.2297 81.8643 64.5714C79.3798 69.9132 74.8811 74.0499 69.355 76.0739Z" fill="white"/>
<path d="M44.8516 50.2637L36.7594 53.2172C36.6579 53.2542 36.5501 53.2709 36.4422 53.2662C36.3343 53.2616 36.2284 53.2356 36.1305 53.19C36.0326 53.1443 35.9446 53.0798 35.8716 53C35.7986 52.9203 35.742 52.827 35.705 52.7253C35.668 52.6237 35.6514 52.5158 35.656 52.4077C35.6607 52.2996 35.6866 52.1935 35.7322 52.0955C35.7778 51.9974 35.8422 51.9093 35.9218 51.8362C36.0015 51.7631 36.0946 51.7064 36.1961 51.6694L44.2883 48.7158C44.4933 48.641 44.7195 48.6508 44.9173 48.743C45.115 48.8353 45.2681 49.0024 45.3428 49.2077C45.4175 49.4129 45.4077 49.6395 45.3156 49.8375C45.2235 50.0356 45.0566 50.1889 44.8516 50.2637Z" fill="#207BFF"/>
<path d="M64.1435 46.8086L37.9112 56.383C37.8097 56.4202 37.7019 56.437 37.5939 56.4324C37.4859 56.4279 37.3798 56.402 37.2818 56.3563C37.1838 56.3107 37.0957 56.2461 37.0226 56.1664C36.9496 56.0866 36.8929 55.9932 36.8559 55.8915C36.8189 55.7898 36.8022 55.6818 36.8069 55.5736C36.8116 55.4655 36.8376 55.3593 36.8833 55.2612C36.929 55.1631 36.9935 55.075 37.0733 55.0019C37.153 54.9288 37.2463 54.8721 37.348 54.8352L63.5803 45.2607C63.6817 45.2237 63.7895 45.207 63.8974 45.2117C64.0053 45.2164 64.1113 45.2423 64.2092 45.288C64.3071 45.3336 64.3951 45.3982 64.4681 45.4779C64.5411 45.5576 64.5977 45.651 64.6347 45.7526C64.6717 45.8542 64.6883 45.9622 64.6836 46.0702C64.679 46.1783 64.6531 46.2844 64.6075 46.3825C64.5619 46.4805 64.4974 46.5686 64.4178 46.6417C64.3382 46.7148 64.245 46.7715 64.1435 46.8086Z" fill="#207BFF"/>
<path d="M65.4658 50.442L39.2335 60.0165C39.132 60.0535 39.0243 60.0702 38.9164 60.0655C38.8084 60.0608 38.7025 60.0349 38.6046 59.9892C38.5067 59.9436 38.4187 59.879 38.3457 59.7993C38.2727 59.7196 38.2161 59.6262 38.1791 59.5246C38.1421 59.423 38.1255 59.315 38.1302 59.207C38.1348 59.0989 38.1607 58.9928 38.2063 58.8947C38.2519 58.7967 38.3164 58.7086 38.396 58.6355C38.4756 58.5624 38.5688 58.5057 38.6703 58.4686L64.9026 48.8942C65.1074 48.8197 65.3335 48.8297 65.531 48.922C65.7285 49.0143 65.8814 49.1813 65.956 49.3864C66.0307 49.5915 66.021 49.8179 65.929 50.0158C65.8371 50.2137 65.6705 50.367 65.4658 50.442Z" fill="#207BFF"/>
<path d="M66.7881 54.0752L40.5558 63.6496C40.4542 63.6868 40.3464 63.7036 40.2384 63.699C40.1304 63.6945 40.0244 63.6686 39.9263 63.623C39.8283 63.5773 39.7403 63.5128 39.6672 63.433C39.5941 63.3532 39.5374 63.2598 39.5004 63.1581C39.4634 63.0564 39.4468 62.9484 39.4515 62.8402C39.4562 62.7321 39.4821 62.6259 39.5278 62.5278C39.5735 62.4297 39.6381 62.3416 39.7178 62.2685C39.7975 62.1954 39.8909 62.1387 39.9925 62.1018L66.2248 52.5273C66.3263 52.4903 66.4341 52.4736 66.542 52.4783C66.6499 52.483 66.7558 52.5089 66.8537 52.5546C66.9516 52.6002 67.0396 52.6648 67.1126 52.7445C67.1856 52.8242 67.2422 52.9176 67.2792 53.0192C67.3162 53.1208 67.3328 53.2288 67.3282 53.3368C67.3235 53.4449 67.2976 53.551 67.252 53.6491C67.2064 53.7471 67.142 53.8352 67.0623 53.9083C66.9827 53.9814 66.8895 54.0381 66.7881 54.0752Z" fill="#207BFF"/>
<path d="M68.1104 57.709L41.8781 67.2834C41.6731 67.3582 41.4469 67.3484 41.2491 67.2562C41.0514 67.1639 40.8983 66.9968 40.8236 66.7916C40.749 66.5863 40.7587 66.3597 40.8508 66.1617C40.943 65.9637 41.1098 65.8104 41.3148 65.7356L67.5471 56.1611C67.6486 56.1241 67.7564 56.1074 67.8643 56.1121C67.9722 56.1168 68.0781 56.1427 68.176 56.1884C68.2739 56.234 68.3619 56.2986 68.4349 56.3783C68.5079 56.458 68.5645 56.5514 68.6015 56.653C68.6385 56.7546 68.6551 56.8626 68.6505 56.9706C68.6458 57.0787 68.6199 57.1848 68.5743 57.2829C68.5287 57.3809 68.4643 57.469 68.3847 57.5421C68.3051 57.6152 68.2119 57.6719 68.1104 57.709Z" fill="#207BFF"/>
<path d="M151.346 67.7995L136.983 102.22C136.37 103.677 135.21 104.833 133.754 105.441C132.297 106.048 130.66 106.058 129.196 105.467C128.439 105.162 127.751 104.705 127.176 104.125C126.601 103.544 126.15 102.853 125.85 102.092C125.55 101.332 125.408 100.518 125.433 99.7009C125.457 98.8836 125.648 98.0799 125.993 97.3388L142.006 62.0422L150.834 40.184C150.071 39.422 149.561 38.4434 149.373 37.381C149.185 36.3186 149.328 35.2239 149.783 34.2458C150.237 33.2676 150.982 32.4534 151.915 31.9136C152.847 31.3739 153.924 31.1349 154.997 31.229C156.07 31.3232 157.088 31.7459 157.913 32.4398C158.738 33.1337 159.33 34.0652 159.608 35.1076C159.886 36.15 159.837 37.2529 159.467 38.2664C159.098 39.2798 158.425 40.1548 157.542 40.7723L151.346 67.7995Z" fill="#FFB6B6"/>
</g>
<defs>
<clipPath id="clip0_6076_4503">
<rect width="183" height="208" fill="white" transform="translate(0.5)"/>
</clipPath>
</defs>
</svg>
