<svg width="159" height="43" viewBox="0 0 159 43" fill="none" xmlns="http://www.w3.org/2000/svg">
<g clip-path="url(#clip0_6116_9110)">
<path d="M39.763 22.6039C39.3712 23.5507 39.4998 24.5765 39.1904 25.5553C37.4106 31.1701 33.7525 35.2508 28.0916 37.7523C27.2841 38.108 26.593 37.9575 25.9622 37.4116C25.462 36.9787 25.01 36.5044 24.7348 35.919C22.961 32.1413 21.9968 28.166 21.7015 24.0664C21.5649 22.1729 22.5151 21.2544 24.5319 20.8742C26.1571 20.7386 27.7822 20.7499 29.4094 20.8647C29.9458 20.8779 30.4821 20.8911 31.0185 20.9024C31.8381 21.0436 32.6597 21.0078 33.4833 20.9212C33.7364 20.8365 34.0076 20.7819 34.2366 20.6577C34.5922 20.4638 34.9136 20.2078 34.8875 19.7655C34.8594 19.2818 34.4697 19.022 34.0599 18.8978C32.8104 18.5157 31.5589 18.0922 30.2712 17.8795C29.3612 17.7289 28.5777 17.3431 27.736 17.0739C21.7859 15.1785 16.8381 11.9711 13.1378 7.16196C12.7461 6.65375 12.3564 6.1399 12.039 5.59028C11.581 4.79786 12.1796 3.52169 13.192 3.19606C14.7529 2.6935 16.3299 2.22105 18.0113 2.22482C19.319 2.1213 20.6268 2.11941 21.9365 2.22482C28.5717 2.85914 33.5536 5.96109 37.049 11.2088C38.624 13.5748 39.4898 16.1892 39.781 18.9674C39.8996 20.1796 39.9197 21.3918 39.769 22.6039H39.763Z" fill="#207BFF"/>
<path d="M13.9822 26.2822C14.0666 29.6439 14.6221 32.9774 15.6084 36.2299C15.6908 36.4991 15.7068 36.7927 15.7088 37.0751C15.7209 38.4341 15.0238 38.946 13.6478 38.53C10.4015 37.5494 7.60116 35.8836 5.2689 33.5515C1.67509 29.9583 0.411581 26.1565 0.153267 20.5652C-0.105048 14.9739 1.88401 11.1847 5.7912 7.56327C6.84785 6.58262 7.25564 5.49656 7.40229 4.15075C7.5188 3.07975 7.56701 2.02004 7.55697 0.950924C7.55295 0.536829 7.67147 0.135909 8.12547 0.0719128C8.69397 -0.00902393 8.72008 0.478479 8.77432 0.845518C9.29863 4.45567 10.8213 7.75337 12.4304 11.0172C13.236 12.6529 13.5533 14.3525 13.6899 16.1444C13.8687 18.4991 13.8014 20.8501 13.8215 23.2123C13.8308 24.2969 13.8215 25.1597 13.9822 26.2822Z" fill="#207BFF"/>
<path d="M17.1116 31.7113C17.0755 31.1503 16.7982 30.7024 17.3868 30.5368C18.0718 30.3448 18.2466 31.0186 18.4676 31.4459C20.5105 35.4024 23.3591 38.7057 27.3326 41.1018C28.0397 41.5291 28.803 41.8754 29.5363 42.2651C29.7994 42.4043 30.1409 42.5512 30.0626 42.8862C29.7352 43.0148 29.4275 43.0186 29.1222 43.0148C28.2604 43.0035 27.5515 42.8862 26.8083 42.5192C25.5849 41.915 24.3997 41.2411 23.2004 40.5955C22.3747 40.1513 21.523 39.7805 20.5567 39.6995C19.7455 39.4914 18.9778 39.8859 18.3109 39.3287C17.3145 38.5514 17.3888 37.4446 17.3044 36.3962C17.2622 35.8616 17.2931 35.19 17.2811 34.6535C17.2476 33.1637 17.1592 32.3727 17.0708 31.0784L17.1116 31.7113Z" fill="#207BFF"/>
<path d="M29.4094 20.8647C27.7842 20.8685 26.1571 20.8704 24.5319 20.8742C26.1571 20.541 27.7822 20.5956 29.4094 20.8647Z" fill="#879CBA"/>
<path d="M21.9325 2.2267C20.6248 2.2267 19.317 2.2267 18.0072 2.2267C19.315 1.95189 20.6248 1.9406 21.9325 2.2267Z" fill="#7184A6"/>
<path d="M39.763 22.6039C39.767 21.3918 39.771 20.1796 39.775 18.9674C40.0643 20.1796 40.0884 21.3918 39.763 22.6039Z" fill="#A2CBEC"/>
<path d="M33.4813 20.9212C32.6577 21.1772 31.8361 21.1584 31.0165 20.9024C31.8381 20.908 32.6597 20.9156 33.4813 20.9212Z" fill="#86B5E1"/>
<path d="M27.1856 10.2131C27.1635 12.0935 25.6549 13.4619 23.6159 13.4524C21.6734 13.443 20.0442 11.8751 20.0703 10.0418C20.0944 8.32331 21.8341 6.80998 23.7565 6.83257C25.7373 6.85703 27.2097 8.30637 27.1876 10.2131H27.1856Z" fill="#FEFEFE"/>
<path d="M36.2452 8.41308C29.3479 -1.46203 15.8621 1.43813 11.8774 3.3795C9.57854 6.97482 20.4204 14.1851 22.4521 15.1004C24.8104 16.1628 32.0306 18.6238 34.1934 19.359C36.1913 20.0381 31.1878 19.9899 27.7395 19.9899C24.2912 19.9899 22.2222 20.3495 21.3027 22.0753C20.3832 23.801 20.4598 24.0168 24.5382 36.257C26.5215 42.2092 34.3388 33.9601 36.4751 31.1354C38.1609 28.9063 43.6782 19.0551 36.2452 8.41308Z" fill="#207BFF"/>
<path d="M28.1118 8.98947C28.0897 10.8698 26.5811 12.2382 24.5421 12.2288C22.5995 12.2194 20.9704 10.6515 20.9965 8.81818C21.0206 7.09969 22.7602 5.58636 24.6827 5.60895C26.6634 5.63341 28.1359 7.08275 28.1138 8.98947H28.1118Z" fill="#FEFEFE"/>
</g>
<path d="M56.168 20.4414C56.1055 19.6211 55.7461 18.9727 55.0898 18.4961C54.4336 18.0117 53.5781 17.7695 52.5234 17.7695C51.6094 17.7695 50.8945 17.9727 50.3789 18.3789C49.8633 18.7773 49.6055 19.3359 49.6055 20.0547C49.6055 20.5703 49.875 20.9688 50.4141 21.25C50.9453 21.5312 52.0742 21.8633 53.8008 22.2461C56.3086 22.8086 57.9844 23.457 58.8281 24.1914C59.6719 24.918 60.0938 26.0859 60.0938 27.6953C60.0938 29.3125 59.457 30.5977 58.1836 31.5508C56.9102 32.4961 55.1875 32.9688 53.0156 32.9688C50.8359 32.9688 49.1328 32.4648 47.9062 31.457C46.6797 30.4492 46.0234 29.0156 45.9375 27.1562H49.4062C49.4453 28.0703 49.7773 28.7734 50.4023 29.2656C51.0273 29.7578 51.8984 30.0039 53.0156 30.0039C54.1641 30.0039 55.0586 29.8203 55.6992 29.4531C56.3477 29.0781 56.6719 28.5625 56.6719 27.9062C56.6719 27.2578 56.4414 26.7812 55.9805 26.4766C55.5273 26.1719 54.5586 25.8555 53.0742 25.5273C50.3398 24.918 48.5117 24.2578 47.5898 23.5469C46.6758 22.8438 46.2188 21.7461 46.2188 20.2539C46.2188 18.582 46.8242 17.2578 48.0352 16.2812C49.2461 15.2969 50.8828 14.8047 52.9453 14.8047C54.875 14.8047 56.4453 15.3125 57.6562 16.3281C58.8672 17.3438 59.5391 18.7148 59.6719 20.4414H56.168ZM62.543 32.5V19.75H64.1367H65.7422V21.8008C65.8906 21.4414 66.0781 21.1211 66.3047 20.8398C67.0469 19.8867 68.125 19.4102 69.5391 19.4102C70.6641 19.4102 71.5859 19.7891 72.3047 20.5469C72.5859 20.8359 72.8086 21.1562 72.9727 21.5078L73.3828 20.8398C74.0781 19.8867 75.0898 19.4102 76.418 19.4102C77.8008 19.4102 78.8828 19.8203 79.6641 20.6406C80.4453 21.4609 80.8359 22.5977 80.8359 24.0508V32.5H79.1602H77.4727V25.0117C77.4727 24.0586 77.3164 23.3555 77.0039 22.9023C76.6914 22.4414 76.207 22.2109 75.5508 22.2109C74.8477 22.2109 74.3086 22.4297 73.9336 22.8672C73.5664 23.2969 73.3828 23.918 73.3828 24.7305V32.5H71.707H70.0195V24.4609C70.0195 23.6953 69.8555 23.1289 69.5273 22.7617C69.1992 22.3945 68.6953 22.2109 68.0156 22.2109C67.3359 22.2109 66.8125 22.4297 66.4453 22.8672C66.0859 23.2969 65.9062 23.918 65.9062 24.7305V32.5H64.2305H62.543ZM86.9766 32.8281C85.7969 32.8281 84.8477 32.4922 84.1289 31.8203C83.4102 31.1406 83.0508 30.25 83.0508 29.1484C83.0508 27.9844 83.375 27.0547 84.0234 26.3594C84.6719 25.6562 85.6172 25.2148 86.8594 25.0352L89.0742 24.7305C89.6523 24.6523 90.1328 24.5195 90.5156 24.332C90.6797 24.2539 90.8047 24.1133 90.8906 23.9102C90.9844 23.707 91.0195 23.5 90.9961 23.2891C90.9492 22.9297 90.7656 22.6484 90.4453 22.4453C90.0625 22.2031 89.5117 22.082 88.793 22.082C88.1523 22.082 87.6523 22.2383 87.293 22.5508C86.9336 22.8633 86.7422 23.3047 86.7188 23.875H83.4961C83.5664 22.3828 84.0742 21.2656 85.0195 20.5234C85.9648 19.7812 87.3516 19.4102 89.1797 19.4102C90.7656 19.4102 92.0156 19.7461 92.9297 20.418C93.8516 21.082 94.3125 21.9922 94.3125 23.1484V30.2734C94.3125 30.8438 94.3594 31.2461 94.4531 31.4805C94.5469 31.707 94.7344 31.8867 95.0156 32.0195V32.0312V32.4883H93.1992H91.3828C91.2344 31.9727 91.1367 31.4688 91.0898 30.9766L91.0781 30.9531C90.0234 32.2031 88.6562 32.8281 86.9766 32.8281ZM91.0195 27.7891V26.3242C90.6289 26.543 90.1133 26.7188 89.4727 26.8516L88.2305 27.0859C87.6445 27.1953 87.1992 27.3984 86.8945 27.6953C86.5898 27.9844 86.4375 28.3516 86.4375 28.7969C86.4375 29.3047 86.5742 29.7031 86.8477 29.9922C87.1211 30.2812 87.5039 30.4258 87.9961 30.4258C89.0742 30.4258 89.9336 30.0469 90.5742 29.2891C90.6992 29.1406 90.8047 28.9219 90.8906 28.6328C90.9766 28.3438 91.0195 28.0625 91.0195 27.7891ZM97.3711 32.5V15.2734H99.0469H100.734V24.5781L104.93 19.75H107.004H109.078L104.473 24.5781L109.195 32.5H107.203H105.199L102.129 27.0156L100.734 28.4805V32.5H99.0586H97.3711ZM121.652 27.7773C121.48 29.3633 120.891 30.6016 119.883 31.4922C118.875 32.3828 117.562 32.8281 115.945 32.8281C114.016 32.8281 112.523 32.2539 111.469 31.1055C110.422 29.957 109.898 28.3203 109.898 26.1953C109.898 24.1172 110.441 22.4688 111.527 21.25C112.621 20.0234 114.094 19.4102 115.945 19.4102C117.586 19.4102 118.93 19.8633 119.977 20.7695C121.023 21.6758 121.582 22.8672 121.652 24.3438H118.23C118.199 23.7109 117.973 23.1992 117.551 22.8086C117.137 22.418 116.602 22.2227 115.945 22.2227C115.102 22.2227 114.457 22.5625 114.012 23.2422C113.574 23.9141 113.355 24.8984 113.355 26.1953C113.355 27.4609 113.574 28.4258 114.012 29.0898C114.457 29.7461 115.102 30.0742 115.945 30.0742C116.555 30.0742 117.07 29.8633 117.492 29.4414C117.914 29.0195 118.16 28.4648 118.23 27.7773H121.652ZM123.996 32.5V15.2734H125.672H127.359V21.3672L127.629 20.9922C128.457 19.9375 129.66 19.4102 131.238 19.4102C132.582 19.4102 133.633 19.8086 134.391 20.6055C135.156 21.4023 135.539 22.5078 135.539 23.9219V32.5H133.863H132.176V24.5312C132.176 23.7422 132.004 23.1602 131.66 22.7852C131.324 22.4023 130.805 22.2109 130.102 22.2109C129.219 22.2109 128.539 22.4766 128.062 23.0078C127.594 23.5391 127.359 24.3047 127.359 25.3047V32.5H125.684H123.996ZM143.719 32.8281C141.781 32.8281 140.285 32.2305 139.23 31.0352C138.184 29.8398 137.66 28.1367 137.66 25.9258C137.66 23.8867 138.195 22.293 139.266 21.1445C140.336 19.9883 141.82 19.4102 143.719 19.4102C145.664 19.4102 147.16 20 148.207 21.1797C149.262 22.3516 149.789 24.0234 149.789 26.1953C149.805 26.4453 149.785 26.6992 149.73 26.957H141.047C141.125 27.9648 141.348 28.7188 141.715 29.2188C142.184 29.8438 142.965 30.1562 144.059 30.1562C144.566 30.1562 145.035 30.0117 145.465 29.7227C145.902 29.4336 146.164 29.0859 146.25 28.6797H149.672C149.383 29.9766 148.711 30.9922 147.656 31.7266C146.609 32.4609 145.297 32.8281 143.719 32.8281ZM146.285 24.8125C146.207 24.0469 146.004 23.4492 145.676 23.0195C145.246 22.4492 144.578 22.1641 143.672 22.1641C142.805 22.1641 142.145 22.4961 141.691 23.1602C141.41 23.582 141.207 24.1328 141.082 24.8125H146.285ZM157.887 32.5703C157.324 32.6172 156.633 32.6406 155.812 32.6406C154.625 32.6406 153.77 32.4297 153.246 32.0078C152.73 31.5781 152.473 30.8789 152.473 29.9102V22.1055H150.703V19.75H152.473V16.3164H155.836V19.75H157.887V22.1055H155.836V29.3477C155.836 29.6445 155.922 29.8398 156.094 29.9336C156.273 30.0273 156.641 30.0742 157.195 30.0742H157.887V32.5703Z" fill="#207BFF"/>
<defs>
<clipPath id="clip0_6116_9110">
<rect width="40" height="43" fill="white"/>
</clipPath>
</defs>
</svg>
